<mxfile host="app.diagrams.net" agent="Mozilla/5.0 (Macintosh; Intel Mac OS X 10_15_7) AppleWebKit/537.36 (KHTML, like Gecko) Chrome/136.0.0.0 Safari/537.36" version="27.0.5" pages="2">
  <diagram id="quONnxb9Ucw7Qj4F1OV8" name="00">
    <mxGraphModel dx="1223" dy="1037" grid="0" gridSize="10" guides="1" tooltips="1" connect="1" arrows="1" fold="1" page="0" pageScale="1" pageWidth="850" pageHeight="1100" math="0" shadow="0">
      <root>
        <mxCell id="0" />
        <mxCell id="1" parent="0" />
        <mxCell id="e9ybmhdoWSf53ikpGfkQ-72" value="" style="rounded=1;whiteSpace=wrap;html=1;arcSize=3;fillColor=none;" parent="1" vertex="1">
          <mxGeometry x="-60" y="2050" width="870" height="300" as="geometry" />
        </mxCell>
        <mxCell id="e9ybmhdoWSf53ikpGfkQ-49" value="" style="rounded=1;whiteSpace=wrap;html=1;fillColor=#FBEAEA;arcSize=4;shadow=0;" parent="1" vertex="1">
          <mxGeometry x="60" y="1150" width="495.82" height="740" as="geometry" />
        </mxCell>
        <mxCell id="kh9sIOl-MEBEW36ed5PM-23" value="" style="rounded=1;whiteSpace=wrap;html=1;fillColor=#FBEAEA;arcSize=4;shadow=0;" parent="1" vertex="1">
          <mxGeometry x="60" y="760" width="457.88" height="258" as="geometry" />
        </mxCell>
        <mxCell id="I5aDIzrliXxLVix5E_Ne-48" value="" style="rounded=1;whiteSpace=wrap;html=1;fillColor=#FBEAEA;arcSize=4;shadow=0;" parent="1" vertex="1">
          <mxGeometry x="-38" y="210" width="790" height="440" as="geometry" />
        </mxCell>
        <mxCell id="I5aDIzrliXxLVix5E_Ne-1" value="" style="rounded=0;whiteSpace=wrap;html=1;fillColor=#FFE2AD;shadow=0;" parent="1" vertex="1">
          <mxGeometry x="195.13" y="258" width="300" height="272" as="geometry" />
        </mxCell>
        <mxCell id="I5aDIzrliXxLVix5E_Ne-2" value="计算机硬件组成" style="text;html=1;align=center;verticalAlign=middle;whiteSpace=wrap;rounded=0;fontSize=16;shadow=0;fontStyle=1" parent="1" vertex="1">
          <mxGeometry x="254.315" y="228" width="181.63" height="20" as="geometry" />
        </mxCell>
        <mxCell id="I5aDIzrliXxLVix5E_Ne-29" style="edgeStyle=orthogonalEdgeStyle;rounded=0;orthogonalLoop=1;jettySize=auto;html=1;entryX=0;entryY=0.5;entryDx=0;entryDy=0;shadow=0;exitX=1;exitY=0.5;exitDx=0;exitDy=0;" parent="1" source="I5aDIzrliXxLVix5E_Ne-61" target="I5aDIzrliXxLVix5E_Ne-21" edge="1">
          <mxGeometry relative="1" as="geometry">
            <mxPoint x="410" y="500" as="sourcePoint" />
            <Array as="points">
              <mxPoint x="450" y="498" />
              <mxPoint x="450" y="410" />
              <mxPoint x="530" y="410" />
              <mxPoint x="530" y="433" />
            </Array>
          </mxGeometry>
        </mxCell>
        <mxCell id="I5aDIzrliXxLVix5E_Ne-15" value="" style="group;fillColor=none;shadow=0;" parent="1" vertex="1" connectable="0">
          <mxGeometry x="10" y="300" width="121" height="206" as="geometry" />
        </mxCell>
        <mxCell id="I5aDIzrliXxLVix5E_Ne-7" value="键盘" style="rounded=0;whiteSpace=wrap;html=1;flipV=1;fillColor=#A5C5F6;shadow=0;" parent="I5aDIzrliXxLVix5E_Ne-15" vertex="1">
          <mxGeometry width="121" height="40" as="geometry" />
        </mxCell>
        <mxCell id="I5aDIzrliXxLVix5E_Ne-8" value="鼠标" style="rounded=0;whiteSpace=wrap;html=1;flipV=1;fillColor=#A5C5F6;shadow=0;" parent="I5aDIzrliXxLVix5E_Ne-15" vertex="1">
          <mxGeometry y="55" width="121" height="40" as="geometry" />
        </mxCell>
        <mxCell id="I5aDIzrliXxLVix5E_Ne-9" value="触控板" style="rounded=0;whiteSpace=wrap;html=1;flipV=1;fillColor=#A5C5F6;shadow=0;" parent="I5aDIzrliXxLVix5E_Ne-15" vertex="1">
          <mxGeometry y="113" width="121" height="40" as="geometry" />
        </mxCell>
        <mxCell id="I5aDIzrliXxLVix5E_Ne-14" value="麦克风" style="rounded=0;whiteSpace=wrap;html=1;flipV=1;fillColor=#A5C5F6;shadow=0;" parent="I5aDIzrliXxLVix5E_Ne-15" vertex="1">
          <mxGeometry y="166" width="121" height="40" as="geometry" />
        </mxCell>
        <mxCell id="I5aDIzrliXxLVix5E_Ne-18" value="" style="group;shadow=0;" parent="1" vertex="1" connectable="0">
          <mxGeometry x="580" y="300" width="121" height="206" as="geometry" />
        </mxCell>
        <mxCell id="I5aDIzrliXxLVix5E_Ne-19" value="显示器" style="rounded=0;whiteSpace=wrap;html=1;flipV=1;fillColor=#F9B5CB;shadow=0;" parent="I5aDIzrliXxLVix5E_Ne-18" vertex="1">
          <mxGeometry width="121" height="40" as="geometry" />
        </mxCell>
        <mxCell id="I5aDIzrliXxLVix5E_Ne-20" value="打印机" style="rounded=0;whiteSpace=wrap;html=1;flipV=1;fillColor=#F9B5CB;shadow=0;" parent="I5aDIzrliXxLVix5E_Ne-18" vertex="1">
          <mxGeometry y="55" width="121" height="40" as="geometry" />
        </mxCell>
        <mxCell id="I5aDIzrliXxLVix5E_Ne-21" value="音响" style="rounded=0;whiteSpace=wrap;html=1;flipV=1;fillColor=#F9B5CB;shadow=0;" parent="I5aDIzrliXxLVix5E_Ne-18" vertex="1">
          <mxGeometry y="113" width="121" height="40" as="geometry" />
        </mxCell>
        <mxCell id="I5aDIzrliXxLVix5E_Ne-22" value="耳机" style="rounded=0;whiteSpace=wrap;html=1;flipV=1;fillColor=#F9B5CB;shadow=0;" parent="I5aDIzrliXxLVix5E_Ne-18" vertex="1">
          <mxGeometry y="166" width="121" height="40" as="geometry" />
        </mxCell>
        <mxCell id="I5aDIzrliXxLVix5E_Ne-23" value="" style="edgeStyle=orthogonalEdgeStyle;orthogonalLoop=1;jettySize=auto;html=1;rounded=0;exitX=1;exitY=0.5;exitDx=0;exitDy=0;entryX=0;entryY=0.5;entryDx=0;entryDy=0;shadow=0;" parent="1" source="I5aDIzrliXxLVix5E_Ne-7" target="I5aDIzrliXxLVix5E_Ne-61" edge="1">
          <mxGeometry width="80" relative="1" as="geometry">
            <mxPoint x="250" y="190" as="sourcePoint" />
            <mxPoint x="330" y="190" as="targetPoint" />
            <Array as="points">
              <mxPoint x="160" y="320" />
              <mxPoint x="160" y="410" />
              <mxPoint x="230" y="410" />
              <mxPoint x="230" y="498" />
            </Array>
          </mxGeometry>
        </mxCell>
        <mxCell id="I5aDIzrliXxLVix5E_Ne-37" value="数据" style="text;html=1;align=center;verticalAlign=middle;whiteSpace=wrap;rounded=0;shadow=0;" parent="1" vertex="1">
          <mxGeometry x="184" y="387" width="60" height="30" as="geometry" />
        </mxCell>
        <mxCell id="I5aDIzrliXxLVix5E_Ne-38" value="数据" style="text;html=1;align=center;verticalAlign=middle;whiteSpace=wrap;rounded=0;shadow=0;" parent="1" vertex="1">
          <mxGeometry x="437.63" y="387" width="60" height="30" as="geometry" />
        </mxCell>
        <mxCell id="I5aDIzrliXxLVix5E_Ne-50" style="edgeStyle=orthogonalEdgeStyle;rounded=0;orthogonalLoop=1;jettySize=auto;html=1;exitX=1;exitY=0.5;exitDx=0;exitDy=0;shadow=0;" parent="1" source="I5aDIzrliXxLVix5E_Ne-14" edge="1">
          <mxGeometry relative="1" as="geometry">
            <Array as="points">
              <mxPoint x="160" y="486" />
              <mxPoint x="160" y="410" />
            </Array>
            <mxPoint x="190" y="410" as="targetPoint" />
          </mxGeometry>
        </mxCell>
        <mxCell id="I5aDIzrliXxLVix5E_Ne-54" value="" style="group;shadow=0;" parent="1" vertex="1" connectable="0">
          <mxGeometry x="274" y="256" width="150.25" height="254.5" as="geometry" />
        </mxCell>
        <mxCell id="I5aDIzrliXxLVix5E_Ne-3" value="" style="rounded=0;whiteSpace=wrap;html=1;fillColor=#f8cecc;strokeColor=#b85450;shadow=0;" parent="I5aDIzrliXxLVix5E_Ne-54" vertex="1">
          <mxGeometry y="20" width="150.25" height="145" as="geometry" />
        </mxCell>
        <mxCell id="I5aDIzrliXxLVix5E_Ne-47" value="CPU" style="text;html=1;align=center;verticalAlign=middle;whiteSpace=wrap;rounded=0;fontStyle=1;shadow=0;" parent="I5aDIzrliXxLVix5E_Ne-54" vertex="1">
          <mxGeometry x="44.365" y="19" width="60" height="30" as="geometry" />
        </mxCell>
        <mxCell id="I5aDIzrliXxLVix5E_Ne-4" value="控制器" style="rounded=0;whiteSpace=wrap;html=1;fillColor=#F0BAB7;shadow=0;" parent="I5aDIzrliXxLVix5E_Ne-54" vertex="1">
          <mxGeometry x="15.120000000000005" y="49" width="118.5" height="48" as="geometry" />
        </mxCell>
        <mxCell id="I5aDIzrliXxLVix5E_Ne-6" value="运算器" style="rounded=0;whiteSpace=wrap;html=1;fillColor=#F0BAB7;shadow=0;" parent="I5aDIzrliXxLVix5E_Ne-54" vertex="1">
          <mxGeometry x="15.870000000000005" y="104" width="118.5" height="48" as="geometry" />
        </mxCell>
        <mxCell id="I5aDIzrliXxLVix5E_Ne-5" value="存储器" style="rounded=0;whiteSpace=wrap;html=1;fillColor=#AEDBC3;shadow=0;" parent="I5aDIzrliXxLVix5E_Ne-54" vertex="1">
          <mxGeometry y="205.5" width="150" height="49" as="geometry" />
        </mxCell>
        <mxCell id="I5aDIzrliXxLVix5E_Ne-60" value="" style="rounded=0;whiteSpace=wrap;html=1;fillColor=#dae8fc;strokeColor=#000000;shadow=0;" parent="1" vertex="1">
          <mxGeometry x="274" y="460" width="150.25" height="160" as="geometry" />
        </mxCell>
        <mxCell id="kh9sIOl-MEBEW36ed5PM-8" style="edgeStyle=orthogonalEdgeStyle;rounded=0;orthogonalLoop=1;jettySize=auto;html=1;exitX=1;exitY=0.5;exitDx=0;exitDy=0;" parent="1" source="I5aDIzrliXxLVix5E_Ne-61" edge="1">
          <mxGeometry relative="1" as="geometry">
            <mxPoint x="450" y="460" as="targetPoint" />
          </mxGeometry>
        </mxCell>
        <mxCell id="I5aDIzrliXxLVix5E_Ne-61" value="内存" style="rounded=0;whiteSpace=wrap;html=1;fillColor=light-dark(#f0bab7, #1d293b);strokeColor=#000000;shadow=0;" parent="1" vertex="1">
          <mxGeometry x="289.12" y="474" width="118.5" height="48" as="geometry" />
        </mxCell>
        <mxCell id="I5aDIzrliXxLVix5E_Ne-62" value="外存" style="rounded=0;whiteSpace=wrap;html=1;fillColor=#99CCFF;strokeColor=#000000;shadow=0;" parent="1" vertex="1">
          <mxGeometry x="289.87" y="540" width="118.5" height="48" as="geometry" />
        </mxCell>
        <mxCell id="I5aDIzrliXxLVix5E_Ne-65" style="edgeStyle=orthogonalEdgeStyle;rounded=0;orthogonalLoop=1;jettySize=auto;html=1;exitX=0;exitY=0.5;exitDx=0;exitDy=0;entryX=1;entryY=0.5;entryDx=0;entryDy=0;dashed=1;endArrow=none;startFill=0;shadow=0;" parent="1" source="I5aDIzrliXxLVix5E_Ne-60" target="I5aDIzrliXxLVix5E_Ne-60" edge="1">
          <mxGeometry relative="1" as="geometry">
            <Array as="points">
              <mxPoint x="360" y="530" />
              <mxPoint x="360" y="530" />
            </Array>
          </mxGeometry>
        </mxCell>
        <mxCell id="I5aDIzrliXxLVix5E_Ne-53" style="edgeStyle=orthogonalEdgeStyle;rounded=0;orthogonalLoop=1;jettySize=auto;html=1;exitX=0.5;exitY=1;exitDx=0;exitDy=0;startArrow=classic;startFill=1;entryX=0.5;entryY=0;entryDx=0;entryDy=0;shadow=0;" parent="1" source="I5aDIzrliXxLVix5E_Ne-3" target="I5aDIzrliXxLVix5E_Ne-60" edge="1">
          <mxGeometry relative="1" as="geometry">
            <mxPoint x="349" y="470" as="targetPoint" />
          </mxGeometry>
        </mxCell>
        <mxCell id="I5aDIzrliXxLVix5E_Ne-66" style="edgeStyle=orthogonalEdgeStyle;rounded=0;orthogonalLoop=1;jettySize=auto;html=1;exitX=1;exitY=0.5;exitDx=0;exitDy=0;shadow=0;" parent="1" source="I5aDIzrliXxLVix5E_Ne-14" target="I5aDIzrliXxLVix5E_Ne-61" edge="1">
          <mxGeometry relative="1" as="geometry">
            <Array as="points">
              <mxPoint x="160" y="486" />
              <mxPoint x="160" y="410" />
              <mxPoint x="230" y="410" />
              <mxPoint x="230" y="498" />
            </Array>
          </mxGeometry>
        </mxCell>
        <mxCell id="I5aDIzrliXxLVix5E_Ne-67" style="edgeStyle=orthogonalEdgeStyle;rounded=0;orthogonalLoop=1;jettySize=auto;html=1;exitX=1;exitY=0.5;exitDx=0;exitDy=0;entryX=0;entryY=0.5;entryDx=0;entryDy=0;shadow=0;" parent="1" source="I5aDIzrliXxLVix5E_Ne-9" target="I5aDIzrliXxLVix5E_Ne-61" edge="1">
          <mxGeometry relative="1" as="geometry">
            <Array as="points">
              <mxPoint x="160" y="433" />
              <mxPoint x="160" y="410" />
              <mxPoint x="230" y="410" />
              <mxPoint x="230" y="498" />
            </Array>
          </mxGeometry>
        </mxCell>
        <mxCell id="I5aDIzrliXxLVix5E_Ne-73" style="edgeStyle=orthogonalEdgeStyle;rounded=0;orthogonalLoop=1;jettySize=auto;html=1;exitX=1;exitY=0.5;exitDx=0;exitDy=0;entryX=0;entryY=0.5;entryDx=0;entryDy=0;shadow=0;" parent="1" source="I5aDIzrliXxLVix5E_Ne-8" target="I5aDIzrliXxLVix5E_Ne-61" edge="1">
          <mxGeometry relative="1" as="geometry">
            <Array as="points">
              <mxPoint x="160" y="375" />
              <mxPoint x="160" y="410" />
              <mxPoint x="230" y="410" />
              <mxPoint x="230" y="498" />
            </Array>
          </mxGeometry>
        </mxCell>
        <mxCell id="I5aDIzrliXxLVix5E_Ne-27" style="edgeStyle=orthogonalEdgeStyle;rounded=0;orthogonalLoop=1;jettySize=auto;html=1;exitX=1;exitY=0.5;exitDx=0;exitDy=0;entryX=0;entryY=0.5;entryDx=0;entryDy=0;shadow=0;endArrow=classic;endFill=1;" parent="1" source="I5aDIzrliXxLVix5E_Ne-61" target="I5aDIzrliXxLVix5E_Ne-19" edge="1">
          <mxGeometry relative="1" as="geometry">
            <mxPoint x="460" y="486" as="sourcePoint" />
            <mxPoint x="653.97" y="320" as="targetPoint" />
            <Array as="points">
              <mxPoint x="450" y="498" />
              <mxPoint x="450" y="410" />
              <mxPoint x="530" y="410" />
              <mxPoint x="530" y="320" />
            </Array>
          </mxGeometry>
        </mxCell>
        <mxCell id="I5aDIzrliXxLVix5E_Ne-28" style="edgeStyle=orthogonalEdgeStyle;rounded=0;orthogonalLoop=1;jettySize=auto;html=1;exitX=1;exitY=0.5;exitDx=0;exitDy=0;entryX=0;entryY=0.5;entryDx=0;entryDy=0;shadow=0;endArrow=classic;endFill=1;" parent="1" source="I5aDIzrliXxLVix5E_Ne-61" target="I5aDIzrliXxLVix5E_Ne-20" edge="1">
          <mxGeometry relative="1" as="geometry">
            <Array as="points">
              <mxPoint x="450" y="498" />
              <mxPoint x="450" y="410" />
              <mxPoint x="530" y="410" />
              <mxPoint x="530" y="375" />
            </Array>
          </mxGeometry>
        </mxCell>
        <mxCell id="I5aDIzrliXxLVix5E_Ne-74" value="输入设备" style="text;html=1;align=center;verticalAlign=middle;whiteSpace=wrap;rounded=0;fontStyle=1;shadow=0;" parent="1" vertex="1">
          <mxGeometry x="40.5" y="258" width="60" height="30" as="geometry" />
        </mxCell>
        <mxCell id="I5aDIzrliXxLVix5E_Ne-75" value="输出设备" style="text;html=1;align=center;verticalAlign=middle;whiteSpace=wrap;rounded=0;fontStyle=1;shadow=0;" parent="1" vertex="1">
          <mxGeometry x="610.5" y="258" width="60" height="30" as="geometry" />
        </mxCell>
        <mxCell id="I5aDIzrliXxLVix5E_Ne-76" value="存储器" style="text;html=1;align=center;verticalAlign=middle;whiteSpace=wrap;rounded=0;fontStyle=1;shadow=0;" parent="1" vertex="1">
          <mxGeometry x="319.12" y="590" width="60" height="30" as="geometry" />
        </mxCell>
        <mxCell id="kh9sIOl-MEBEW36ed5PM-1" value="" style="rounded=1;whiteSpace=wrap;html=1;arcSize=4;fillColor=#f5f5f5;strokeColor=#666666;fontColor=#333333;shadow=0;" parent="1" vertex="1">
          <mxGeometry x="70" y="-20" width="250" height="180" as="geometry" />
        </mxCell>
        <mxCell id="kh9sIOl-MEBEW36ed5PM-2" value="软件" style="rounded=0;whiteSpace=wrap;html=1;fillColor=#f8cecc;strokeColor=#b85450;fontStyle=1;shadow=0;" parent="1" vertex="1">
          <mxGeometry x="134.32" y="20" width="120" height="60" as="geometry" />
        </mxCell>
        <mxCell id="kh9sIOl-MEBEW36ed5PM-3" value="硬件" style="rounded=0;whiteSpace=wrap;html=1;fillColor=#dae8fc;strokeColor=#6c8ebf;fontStyle=1;shadow=0;" parent="1" vertex="1">
          <mxGeometry x="134.32" y="90" width="120" height="60" as="geometry" />
        </mxCell>
        <mxCell id="kh9sIOl-MEBEW36ed5PM-5" value="计算机系统" style="text;html=1;align=center;verticalAlign=middle;whiteSpace=wrap;rounded=0;fontSize=16;shadow=0;fontStyle=1" parent="1" vertex="1">
          <mxGeometry x="104.185" y="-10" width="181.63" height="20" as="geometry" />
        </mxCell>
        <mxCell id="I5aDIzrliXxLVix5E_Ne-41" style="edgeStyle=orthogonalEdgeStyle;rounded=0;orthogonalLoop=1;jettySize=auto;html=1;exitX=1;exitY=0.5;exitDx=0;exitDy=0;entryX=0;entryY=0.5;entryDx=0;entryDy=0;shadow=0;" parent="1" source="I5aDIzrliXxLVix5E_Ne-61" target="I5aDIzrliXxLVix5E_Ne-22" edge="1">
          <mxGeometry relative="1" as="geometry">
            <Array as="points">
              <mxPoint x="450" y="498" />
              <mxPoint x="450" y="410" />
              <mxPoint x="530" y="410" />
              <mxPoint x="530" y="486" />
            </Array>
          </mxGeometry>
        </mxCell>
        <mxCell id="kh9sIOl-MEBEW36ed5PM-9" value="计算机硬件" style="rounded=0;whiteSpace=wrap;html=1;fillColor=#dae8fc;strokeColor=#6c8ebf;fontStyle=1;shadow=0;" parent="1" vertex="1">
          <mxGeometry x="234.38" y="940" width="229.5" height="60" as="geometry" />
        </mxCell>
        <mxCell id="kh9sIOl-MEBEW36ed5PM-10" value="操作系统" style="rounded=0;whiteSpace=wrap;html=1;fillColor=#f8cecc;strokeColor=#b85450;fontStyle=1;shadow=0;" parent="1" vertex="1">
          <mxGeometry x="310" y="880" width="153.88" height="60" as="geometry" />
        </mxCell>
        <mxCell id="kh9sIOl-MEBEW36ed5PM-12" value="应用软件" style="rounded=0;whiteSpace=wrap;html=1;fillColor=#f8cecc;strokeColor=#b85450;fontStyle=1;shadow=0;" parent="1" vertex="1">
          <mxGeometry x="320" y="820" width="143.88" height="60" as="geometry" />
        </mxCell>
        <mxCell id="kh9sIOl-MEBEW36ed5PM-13" value="软件" style="whiteSpace=wrap;html=1;fillColor=#f8cecc;strokeColor=#b85450;rounded=0;fontStyle=1;shadow=0;" parent="1" vertex="1">
          <mxGeometry x="234.38" y="820" width="85.62" height="120" as="geometry" />
        </mxCell>
        <mxCell id="kh9sIOl-MEBEW36ed5PM-17" style="edgeStyle=orthogonalEdgeStyle;rounded=0;orthogonalLoop=1;jettySize=auto;html=1;exitX=0.98;exitY=0.51;exitDx=0;exitDy=0;exitPerimeter=0;entryX=0;entryY=0.5;entryDx=0;entryDy=0;" parent="1" source="kh9sIOl-MEBEW36ed5PM-21" target="kh9sIOl-MEBEW36ed5PM-13" edge="1">
          <mxGeometry relative="1" as="geometry">
            <mxPoint x="130.5" y="880" as="sourcePoint" />
          </mxGeometry>
        </mxCell>
        <mxCell id="kh9sIOl-MEBEW36ed5PM-25" value="使用" style="edgeLabel;html=1;align=center;verticalAlign=middle;resizable=0;points=[];labelBackgroundColor=light-dark(#fbeaea, #ededed);" parent="kh9sIOl-MEBEW36ed5PM-17" vertex="1" connectable="0">
          <mxGeometry x="0.0276" y="2" relative="1" as="geometry">
            <mxPoint y="1" as="offset" />
          </mxGeometry>
        </mxCell>
        <mxCell id="kh9sIOl-MEBEW36ed5PM-21" value="" style="points=[[0.35,0,0],[0.98,0.51,0],[1,0.71,0],[0.67,1,0],[0,0.795,0],[0,0.65,0]];verticalLabelPosition=bottom;sketch=0;html=1;verticalAlign=top;aspect=fixed;align=center;pointerEvents=1;shape=mxgraph.cisco19.user;fillColor=#005073;strokeColor=none;" parent="1" vertex="1">
          <mxGeometry x="84.32" y="855" width="50" height="50" as="geometry" />
        </mxCell>
        <mxCell id="kh9sIOl-MEBEW36ed5PM-24" value="用户与软件" style="text;html=1;align=center;verticalAlign=middle;whiteSpace=wrap;rounded=0;fontSize=16;shadow=0;fontStyle=1" parent="1" vertex="1">
          <mxGeometry x="186.375" y="770" width="181.63" height="20" as="geometry" />
        </mxCell>
        <mxCell id="kh9sIOl-MEBEW36ed5PM-28" value="0" style="whiteSpace=wrap;html=1;aspect=fixed;" parent="1" vertex="1">
          <mxGeometry x="890" y="840" width="40" height="40" as="geometry" />
        </mxCell>
        <mxCell id="kh9sIOl-MEBEW36ed5PM-39" value="1" style="whiteSpace=wrap;html=1;aspect=fixed;" parent="1" vertex="1">
          <mxGeometry x="930" y="840" width="40" height="40" as="geometry" />
        </mxCell>
        <mxCell id="kh9sIOl-MEBEW36ed5PM-45" value="0" style="whiteSpace=wrap;html=1;aspect=fixed;" parent="1" vertex="1">
          <mxGeometry x="970" y="840" width="40" height="40" as="geometry" />
        </mxCell>
        <mxCell id="kh9sIOl-MEBEW36ed5PM-51" value="1" style="whiteSpace=wrap;html=1;aspect=fixed;" parent="1" vertex="1">
          <mxGeometry x="1010" y="840" width="40" height="40" as="geometry" />
        </mxCell>
        <mxCell id="kh9sIOl-MEBEW36ed5PM-57" value="0" style="whiteSpace=wrap;html=1;aspect=fixed;" parent="1" vertex="1">
          <mxGeometry x="1050" y="840" width="40" height="40" as="geometry" />
        </mxCell>
        <mxCell id="kh9sIOl-MEBEW36ed5PM-63" value="1" style="whiteSpace=wrap;html=1;aspect=fixed;" parent="1" vertex="1">
          <mxGeometry x="1090" y="840" width="40" height="40" as="geometry" />
        </mxCell>
        <mxCell id="kh9sIOl-MEBEW36ed5PM-69" value="0" style="whiteSpace=wrap;html=1;aspect=fixed;" parent="1" vertex="1">
          <mxGeometry x="1130" y="840" width="40" height="40" as="geometry" />
        </mxCell>
        <mxCell id="kh9sIOl-MEBEW36ed5PM-75" value="1" style="whiteSpace=wrap;html=1;aspect=fixed;" parent="1" vertex="1">
          <mxGeometry x="1170" y="840" width="40" height="40" as="geometry" />
        </mxCell>
        <mxCell id="kh9sIOl-MEBEW36ed5PM-99" style="edgeStyle=orthogonalEdgeStyle;rounded=0;orthogonalLoop=1;jettySize=auto;html=1;exitX=0.5;exitY=1;exitDx=0;exitDy=0;entryX=0.5;entryY=0;entryDx=0;entryDy=0;" parent="1" source="kh9sIOl-MEBEW36ed5PM-98" target="kh9sIOl-MEBEW36ed5PM-28" edge="1">
          <mxGeometry relative="1" as="geometry" />
        </mxCell>
        <mxCell id="kh9sIOl-MEBEW36ed5PM-98" value="1 位：bit" style="text;html=1;align=center;verticalAlign=middle;whiteSpace=wrap;rounded=0;" parent="1" vertex="1">
          <mxGeometry x="880" y="790" width="60" height="30" as="geometry" />
        </mxCell>
        <mxCell id="kh9sIOl-MEBEW36ed5PM-100" value="" style="verticalLabelPosition=bottom;shadow=0;dashed=0;align=center;html=1;verticalAlign=top;strokeWidth=1;shape=mxgraph.mockup.markup.curlyBrace;whiteSpace=wrap;strokeColor=#999999;" parent="1" vertex="1">
          <mxGeometry x="890" y="770" width="320" height="20" as="geometry" />
        </mxCell>
        <mxCell id="kh9sIOl-MEBEW36ed5PM-101" value="1 字节：Byte" style="text;html=1;align=center;verticalAlign=middle;whiteSpace=wrap;rounded=0;" parent="1" vertex="1">
          <mxGeometry x="1010" y="747" width="80" height="30" as="geometry" />
        </mxCell>
        <mxCell id="kh9sIOl-MEBEW36ed5PM-102" value="0" style="whiteSpace=wrap;html=1;aspect=fixed;fillColor=#000000;" parent="1" vertex="1">
          <mxGeometry x="890" y="890" width="40" height="40" as="geometry" />
        </mxCell>
        <mxCell id="kh9sIOl-MEBEW36ed5PM-103" value="" style="whiteSpace=wrap;html=1;aspect=fixed;" parent="1" vertex="1">
          <mxGeometry x="930" y="890" width="40" height="40" as="geometry" />
        </mxCell>
        <mxCell id="kh9sIOl-MEBEW36ed5PM-104" value="0" style="whiteSpace=wrap;html=1;aspect=fixed;fillColor=#000000;" parent="1" vertex="1">
          <mxGeometry x="970" y="890" width="40" height="40" as="geometry" />
        </mxCell>
        <mxCell id="kh9sIOl-MEBEW36ed5PM-105" value="" style="whiteSpace=wrap;html=1;aspect=fixed;" parent="1" vertex="1">
          <mxGeometry x="1010" y="890" width="40" height="40" as="geometry" />
        </mxCell>
        <mxCell id="kh9sIOl-MEBEW36ed5PM-106" value="0" style="whiteSpace=wrap;html=1;aspect=fixed;fillColor=#000000;" parent="1" vertex="1">
          <mxGeometry x="1050" y="890" width="40" height="40" as="geometry" />
        </mxCell>
        <mxCell id="kh9sIOl-MEBEW36ed5PM-107" value="" style="whiteSpace=wrap;html=1;aspect=fixed;fillColor=#FFFFFF;" parent="1" vertex="1">
          <mxGeometry x="1090" y="890" width="40" height="40" as="geometry" />
        </mxCell>
        <mxCell id="kh9sIOl-MEBEW36ed5PM-108" value="0" style="whiteSpace=wrap;html=1;aspect=fixed;fillColor=#000000;" parent="1" vertex="1">
          <mxGeometry x="1130" y="890" width="40" height="40" as="geometry" />
        </mxCell>
        <mxCell id="kh9sIOl-MEBEW36ed5PM-109" value="" style="whiteSpace=wrap;html=1;aspect=fixed;" parent="1" vertex="1">
          <mxGeometry x="1170" y="890" width="40" height="40" as="geometry" />
        </mxCell>
        <mxCell id="kh9sIOl-MEBEW36ed5PM-110" value="通电：白&lt;div&gt;断电：黑&lt;/div&gt;" style="text;html=1;align=center;verticalAlign=middle;whiteSpace=wrap;rounded=0;" parent="1" vertex="1">
          <mxGeometry x="820" y="895" width="60" height="30" as="geometry" />
        </mxCell>
        <mxCell id="kh9sIOl-MEBEW36ed5PM-113" value="1B * 1024 = 1KB&lt;div&gt;&lt;br&gt;&lt;/div&gt;&lt;div&gt;&lt;br&gt;&lt;/div&gt;&lt;div&gt;&lt;br&gt;&lt;div&gt;1KB * 1024 = 1MB&lt;/div&gt;&lt;div&gt;&lt;br&gt;&lt;/div&gt;&lt;div&gt;&lt;br&gt;&lt;/div&gt;&lt;div&gt;&lt;br&gt;&lt;/div&gt;&lt;div&gt;1MB * 1024 = 1GB&lt;/div&gt;&lt;/div&gt;" style="text;html=1;align=left;verticalAlign=middle;whiteSpace=wrap;rounded=0;fillColor=#f5f5f5;strokeColor=#666666;fontColor=#333333;" parent="1" vertex="1">
          <mxGeometry x="1140" y="990" width="130" height="180" as="geometry" />
        </mxCell>
        <mxCell id="kh9sIOl-MEBEW36ed5PM-173" value="" style="group" parent="1" vertex="1" connectable="0">
          <mxGeometry x="890" y="990" width="237.42" height="230" as="geometry" />
        </mxCell>
        <mxCell id="kh9sIOl-MEBEW36ed5PM-34" value="" style="whiteSpace=wrap;html=1;aspect=fixed;" parent="kh9sIOl-MEBEW36ed5PM-173" vertex="1">
          <mxGeometry width="29.67741935483871" height="29.67741935483871" as="geometry" />
        </mxCell>
        <mxCell id="kh9sIOl-MEBEW36ed5PM-40" value="" style="whiteSpace=wrap;html=1;aspect=fixed;" parent="kh9sIOl-MEBEW36ed5PM-173" vertex="1">
          <mxGeometry x="29.677499999999995" width="29.67741935483871" height="29.67741935483871" as="geometry" />
        </mxCell>
        <mxCell id="kh9sIOl-MEBEW36ed5PM-46" value="" style="whiteSpace=wrap;html=1;aspect=fixed;" parent="kh9sIOl-MEBEW36ed5PM-173" vertex="1">
          <mxGeometry x="59.35499999999999" width="29.67741935483871" height="29.67741935483871" as="geometry" />
        </mxCell>
        <mxCell id="kh9sIOl-MEBEW36ed5PM-52" value="" style="whiteSpace=wrap;html=1;aspect=fixed;" parent="kh9sIOl-MEBEW36ed5PM-173" vertex="1">
          <mxGeometry x="89.03249999999998" width="29.67741935483871" height="29.67741935483871" as="geometry" />
        </mxCell>
        <mxCell id="kh9sIOl-MEBEW36ed5PM-58" value="" style="whiteSpace=wrap;html=1;aspect=fixed;" parent="kh9sIOl-MEBEW36ed5PM-173" vertex="1">
          <mxGeometry x="118.70999999999998" width="29.67741935483871" height="29.67741935483871" as="geometry" />
        </mxCell>
        <mxCell id="kh9sIOl-MEBEW36ed5PM-64" value="" style="whiteSpace=wrap;html=1;aspect=fixed;" parent="kh9sIOl-MEBEW36ed5PM-173" vertex="1">
          <mxGeometry x="148.3875" width="29.67741935483871" height="29.67741935483871" as="geometry" />
        </mxCell>
        <mxCell id="kh9sIOl-MEBEW36ed5PM-70" value="" style="whiteSpace=wrap;html=1;aspect=fixed;" parent="kh9sIOl-MEBEW36ed5PM-173" vertex="1">
          <mxGeometry x="178.06499999999997" width="29.67741935483871" height="29.67741935483871" as="geometry" />
        </mxCell>
        <mxCell id="kh9sIOl-MEBEW36ed5PM-76" value="" style="whiteSpace=wrap;html=1;aspect=fixed;" parent="kh9sIOl-MEBEW36ed5PM-173" vertex="1">
          <mxGeometry x="207.74249999999998" width="29.67741935483871" height="29.67741935483871" as="geometry" />
        </mxCell>
        <mxCell id="kh9sIOl-MEBEW36ed5PM-124" value="" style="whiteSpace=wrap;html=1;aspect=fixed;" parent="kh9sIOl-MEBEW36ed5PM-173" vertex="1">
          <mxGeometry y="29.67741935483871" width="29.67741935483871" height="29.67741935483871" as="geometry" />
        </mxCell>
        <mxCell id="kh9sIOl-MEBEW36ed5PM-125" value="" style="whiteSpace=wrap;html=1;aspect=fixed;" parent="kh9sIOl-MEBEW36ed5PM-173" vertex="1">
          <mxGeometry x="29.677499999999995" y="29.67741935483871" width="29.67741935483871" height="29.67741935483871" as="geometry" />
        </mxCell>
        <mxCell id="kh9sIOl-MEBEW36ed5PM-126" value="" style="whiteSpace=wrap;html=1;aspect=fixed;" parent="kh9sIOl-MEBEW36ed5PM-173" vertex="1">
          <mxGeometry x="59.35499999999999" y="29.67741935483871" width="29.67741935483871" height="29.67741935483871" as="geometry" />
        </mxCell>
        <mxCell id="kh9sIOl-MEBEW36ed5PM-127" value="" style="whiteSpace=wrap;html=1;aspect=fixed;" parent="kh9sIOl-MEBEW36ed5PM-173" vertex="1">
          <mxGeometry x="89.03249999999998" y="29.67741935483871" width="29.67741935483871" height="29.67741935483871" as="geometry" />
        </mxCell>
        <mxCell id="kh9sIOl-MEBEW36ed5PM-128" value="" style="whiteSpace=wrap;html=1;aspect=fixed;" parent="kh9sIOl-MEBEW36ed5PM-173" vertex="1">
          <mxGeometry x="118.70999999999998" y="29.67741935483871" width="29.67741935483871" height="29.67741935483871" as="geometry" />
        </mxCell>
        <mxCell id="kh9sIOl-MEBEW36ed5PM-129" value="" style="whiteSpace=wrap;html=1;aspect=fixed;" parent="kh9sIOl-MEBEW36ed5PM-173" vertex="1">
          <mxGeometry x="148.3875" y="29.67741935483871" width="29.67741935483871" height="29.67741935483871" as="geometry" />
        </mxCell>
        <mxCell id="kh9sIOl-MEBEW36ed5PM-130" value="" style="whiteSpace=wrap;html=1;aspect=fixed;" parent="kh9sIOl-MEBEW36ed5PM-173" vertex="1">
          <mxGeometry x="178.06499999999997" y="29.67741935483871" width="29.67741935483871" height="29.67741935483871" as="geometry" />
        </mxCell>
        <mxCell id="kh9sIOl-MEBEW36ed5PM-131" value="" style="whiteSpace=wrap;html=1;aspect=fixed;" parent="kh9sIOl-MEBEW36ed5PM-173" vertex="1">
          <mxGeometry x="207.74249999999998" y="29.67741935483871" width="29.67741935483871" height="29.67741935483871" as="geometry" />
        </mxCell>
        <mxCell id="kh9sIOl-MEBEW36ed5PM-132" value="" style="whiteSpace=wrap;html=1;aspect=fixed;" parent="kh9sIOl-MEBEW36ed5PM-173" vertex="1">
          <mxGeometry y="59.35483870967742" width="29.67741935483871" height="29.67741935483871" as="geometry" />
        </mxCell>
        <mxCell id="kh9sIOl-MEBEW36ed5PM-133" value="" style="whiteSpace=wrap;html=1;aspect=fixed;" parent="kh9sIOl-MEBEW36ed5PM-173" vertex="1">
          <mxGeometry x="29.677499999999995" y="59.35483870967742" width="29.67741935483871" height="29.67741935483871" as="geometry" />
        </mxCell>
        <mxCell id="kh9sIOl-MEBEW36ed5PM-134" value="" style="whiteSpace=wrap;html=1;aspect=fixed;" parent="kh9sIOl-MEBEW36ed5PM-173" vertex="1">
          <mxGeometry x="59.35499999999999" y="59.35483870967742" width="29.67741935483871" height="29.67741935483871" as="geometry" />
        </mxCell>
        <mxCell id="kh9sIOl-MEBEW36ed5PM-135" value="" style="whiteSpace=wrap;html=1;aspect=fixed;" parent="kh9sIOl-MEBEW36ed5PM-173" vertex="1">
          <mxGeometry x="89.03249999999998" y="59.35483870967742" width="29.67741935483871" height="29.67741935483871" as="geometry" />
        </mxCell>
        <mxCell id="kh9sIOl-MEBEW36ed5PM-136" value="" style="whiteSpace=wrap;html=1;aspect=fixed;" parent="kh9sIOl-MEBEW36ed5PM-173" vertex="1">
          <mxGeometry x="118.70999999999998" y="59.35483870967742" width="29.67741935483871" height="29.67741935483871" as="geometry" />
        </mxCell>
        <mxCell id="kh9sIOl-MEBEW36ed5PM-137" value="" style="whiteSpace=wrap;html=1;aspect=fixed;" parent="kh9sIOl-MEBEW36ed5PM-173" vertex="1">
          <mxGeometry x="148.3875" y="59.35483870967742" width="29.67741935483871" height="29.67741935483871" as="geometry" />
        </mxCell>
        <mxCell id="kh9sIOl-MEBEW36ed5PM-138" value="" style="whiteSpace=wrap;html=1;aspect=fixed;" parent="kh9sIOl-MEBEW36ed5PM-173" vertex="1">
          <mxGeometry x="178.06499999999997" y="59.35483870967742" width="29.67741935483871" height="29.67741935483871" as="geometry" />
        </mxCell>
        <mxCell id="kh9sIOl-MEBEW36ed5PM-139" value="" style="whiteSpace=wrap;html=1;aspect=fixed;" parent="kh9sIOl-MEBEW36ed5PM-173" vertex="1">
          <mxGeometry x="207.74249999999998" y="59.35483870967742" width="29.67741935483871" height="29.67741935483871" as="geometry" />
        </mxCell>
        <mxCell id="kh9sIOl-MEBEW36ed5PM-140" value="" style="whiteSpace=wrap;html=1;aspect=fixed;fontStyle=1" parent="kh9sIOl-MEBEW36ed5PM-173" vertex="1">
          <mxGeometry y="89.03225806451613" width="29.67741935483871" height="29.67741935483871" as="geometry" />
        </mxCell>
        <mxCell id="kh9sIOl-MEBEW36ed5PM-141" value="" style="whiteSpace=wrap;html=1;aspect=fixed;fontStyle=1" parent="kh9sIOl-MEBEW36ed5PM-173" vertex="1">
          <mxGeometry x="29.677499999999995" y="89.03225806451613" width="29.67741935483871" height="29.67741935483871" as="geometry" />
        </mxCell>
        <mxCell id="kh9sIOl-MEBEW36ed5PM-142" value="" style="whiteSpace=wrap;html=1;aspect=fixed;fontStyle=1" parent="kh9sIOl-MEBEW36ed5PM-173" vertex="1">
          <mxGeometry x="59.35499999999999" y="89.03225806451613" width="29.67741935483871" height="29.67741935483871" as="geometry" />
        </mxCell>
        <mxCell id="kh9sIOl-MEBEW36ed5PM-143" value="" style="whiteSpace=wrap;html=1;aspect=fixed;fontStyle=1" parent="kh9sIOl-MEBEW36ed5PM-173" vertex="1">
          <mxGeometry x="89.03249999999998" y="89.03225806451613" width="29.67741935483871" height="29.67741935483871" as="geometry" />
        </mxCell>
        <mxCell id="kh9sIOl-MEBEW36ed5PM-144" value="" style="whiteSpace=wrap;html=1;aspect=fixed;fontStyle=1" parent="kh9sIOl-MEBEW36ed5PM-173" vertex="1">
          <mxGeometry x="118.70999999999998" y="89.03225806451613" width="29.67741935483871" height="29.67741935483871" as="geometry" />
        </mxCell>
        <mxCell id="kh9sIOl-MEBEW36ed5PM-145" value="" style="whiteSpace=wrap;html=1;aspect=fixed;fontStyle=1" parent="kh9sIOl-MEBEW36ed5PM-173" vertex="1">
          <mxGeometry x="148.3875" y="89.03225806451613" width="29.67741935483871" height="29.67741935483871" as="geometry" />
        </mxCell>
        <mxCell id="kh9sIOl-MEBEW36ed5PM-146" value="" style="whiteSpace=wrap;html=1;aspect=fixed;fontStyle=1" parent="kh9sIOl-MEBEW36ed5PM-173" vertex="1">
          <mxGeometry x="178.06499999999997" y="89.03225806451613" width="29.67741935483871" height="29.67741935483871" as="geometry" />
        </mxCell>
        <mxCell id="kh9sIOl-MEBEW36ed5PM-147" value="" style="whiteSpace=wrap;html=1;aspect=fixed;fontStyle=1" parent="kh9sIOl-MEBEW36ed5PM-173" vertex="1">
          <mxGeometry x="207.74249999999998" y="89.03225806451613" width="29.67741935483871" height="29.67741935483871" as="geometry" />
        </mxCell>
        <mxCell id="kh9sIOl-MEBEW36ed5PM-148" value="" style="whiteSpace=wrap;html=1;aspect=fixed;fontStyle=1" parent="kh9sIOl-MEBEW36ed5PM-173" vertex="1">
          <mxGeometry y="118.70967741935485" width="29.67741935483871" height="29.67741935483871" as="geometry" />
        </mxCell>
        <mxCell id="kh9sIOl-MEBEW36ed5PM-149" value="" style="whiteSpace=wrap;html=1;aspect=fixed;fontStyle=1" parent="kh9sIOl-MEBEW36ed5PM-173" vertex="1">
          <mxGeometry x="29.677499999999995" y="118.70967741935485" width="29.67741935483871" height="29.67741935483871" as="geometry" />
        </mxCell>
        <mxCell id="kh9sIOl-MEBEW36ed5PM-150" value="" style="whiteSpace=wrap;html=1;aspect=fixed;fontStyle=1" parent="kh9sIOl-MEBEW36ed5PM-173" vertex="1">
          <mxGeometry x="59.35499999999999" y="118.70967741935485" width="29.67741935483871" height="29.67741935483871" as="geometry" />
        </mxCell>
        <mxCell id="kh9sIOl-MEBEW36ed5PM-151" value="" style="whiteSpace=wrap;html=1;aspect=fixed;fontStyle=1" parent="kh9sIOl-MEBEW36ed5PM-173" vertex="1">
          <mxGeometry x="89.03249999999998" y="118.70967741935485" width="29.67741935483871" height="29.67741935483871" as="geometry" />
        </mxCell>
        <mxCell id="kh9sIOl-MEBEW36ed5PM-152" value="" style="whiteSpace=wrap;html=1;aspect=fixed;fontStyle=1" parent="kh9sIOl-MEBEW36ed5PM-173" vertex="1">
          <mxGeometry x="118.70999999999998" y="118.70967741935485" width="29.67741935483871" height="29.67741935483871" as="geometry" />
        </mxCell>
        <mxCell id="kh9sIOl-MEBEW36ed5PM-153" value="" style="whiteSpace=wrap;html=1;aspect=fixed;fontStyle=1" parent="kh9sIOl-MEBEW36ed5PM-173" vertex="1">
          <mxGeometry x="148.3875" y="118.70967741935485" width="29.67741935483871" height="29.67741935483871" as="geometry" />
        </mxCell>
        <mxCell id="kh9sIOl-MEBEW36ed5PM-154" value="" style="whiteSpace=wrap;html=1;aspect=fixed;fontStyle=1" parent="kh9sIOl-MEBEW36ed5PM-173" vertex="1">
          <mxGeometry x="178.06499999999997" y="118.70967741935485" width="29.67741935483871" height="29.67741935483871" as="geometry" />
        </mxCell>
        <mxCell id="kh9sIOl-MEBEW36ed5PM-155" value="" style="whiteSpace=wrap;html=1;aspect=fixed;fontStyle=1" parent="kh9sIOl-MEBEW36ed5PM-173" vertex="1">
          <mxGeometry x="207.74249999999998" y="118.70967741935485" width="29.67741935483871" height="29.67741935483871" as="geometry" />
        </mxCell>
        <mxCell id="kh9sIOl-MEBEW36ed5PM-156" value="" style="whiteSpace=wrap;html=1;aspect=fixed;fontStyle=1" parent="kh9sIOl-MEBEW36ed5PM-173" vertex="1">
          <mxGeometry y="148.38709677419354" width="29.67741935483871" height="29.67741935483871" as="geometry" />
        </mxCell>
        <mxCell id="kh9sIOl-MEBEW36ed5PM-157" value="" style="whiteSpace=wrap;html=1;aspect=fixed;fontStyle=1" parent="kh9sIOl-MEBEW36ed5PM-173" vertex="1">
          <mxGeometry x="29.677499999999995" y="148.38709677419354" width="29.67741935483871" height="29.67741935483871" as="geometry" />
        </mxCell>
        <mxCell id="kh9sIOl-MEBEW36ed5PM-158" value="" style="whiteSpace=wrap;html=1;aspect=fixed;fontStyle=1" parent="kh9sIOl-MEBEW36ed5PM-173" vertex="1">
          <mxGeometry x="59.35499999999999" y="148.38709677419354" width="29.67741935483871" height="29.67741935483871" as="geometry" />
        </mxCell>
        <mxCell id="kh9sIOl-MEBEW36ed5PM-159" value="" style="whiteSpace=wrap;html=1;aspect=fixed;fontStyle=1" parent="kh9sIOl-MEBEW36ed5PM-173" vertex="1">
          <mxGeometry x="89.03249999999998" y="148.38709677419354" width="29.67741935483871" height="29.67741935483871" as="geometry" />
        </mxCell>
        <mxCell id="kh9sIOl-MEBEW36ed5PM-160" value="" style="whiteSpace=wrap;html=1;aspect=fixed;fontStyle=1" parent="kh9sIOl-MEBEW36ed5PM-173" vertex="1">
          <mxGeometry x="118.70999999999998" y="148.38709677419354" width="29.67741935483871" height="29.67741935483871" as="geometry" />
        </mxCell>
        <mxCell id="kh9sIOl-MEBEW36ed5PM-161" value="" style="whiteSpace=wrap;html=1;aspect=fixed;fontStyle=1" parent="kh9sIOl-MEBEW36ed5PM-173" vertex="1">
          <mxGeometry x="148.3875" y="148.38709677419354" width="29.67741935483871" height="29.67741935483871" as="geometry" />
        </mxCell>
        <mxCell id="kh9sIOl-MEBEW36ed5PM-162" value="" style="whiteSpace=wrap;html=1;aspect=fixed;fontStyle=1" parent="kh9sIOl-MEBEW36ed5PM-173" vertex="1">
          <mxGeometry x="178.06499999999997" y="148.38709677419354" width="29.67741935483871" height="29.67741935483871" as="geometry" />
        </mxCell>
        <mxCell id="kh9sIOl-MEBEW36ed5PM-163" value="" style="whiteSpace=wrap;html=1;aspect=fixed;fontStyle=1" parent="kh9sIOl-MEBEW36ed5PM-173" vertex="1">
          <mxGeometry x="207.74249999999998" y="148.38709677419354" width="29.67741935483871" height="29.67741935483871" as="geometry" />
        </mxCell>
        <mxCell id="kh9sIOl-MEBEW36ed5PM-164" value="" style="whiteSpace=wrap;html=1;aspect=fixed;fontStyle=1" parent="kh9sIOl-MEBEW36ed5PM-173" vertex="1">
          <mxGeometry y="200.32258064516128" width="29.67741935483871" height="29.67741935483871" as="geometry" />
        </mxCell>
        <mxCell id="kh9sIOl-MEBEW36ed5PM-165" value="" style="whiteSpace=wrap;html=1;aspect=fixed;fontStyle=1" parent="kh9sIOl-MEBEW36ed5PM-173" vertex="1">
          <mxGeometry x="29.677499999999995" y="200.32258064516128" width="29.67741935483871" height="29.67741935483871" as="geometry" />
        </mxCell>
        <mxCell id="kh9sIOl-MEBEW36ed5PM-166" value="" style="whiteSpace=wrap;html=1;aspect=fixed;fontStyle=1" parent="kh9sIOl-MEBEW36ed5PM-173" vertex="1">
          <mxGeometry x="59.35499999999999" y="200.32258064516128" width="29.67741935483871" height="29.67741935483871" as="geometry" />
        </mxCell>
        <mxCell id="kh9sIOl-MEBEW36ed5PM-167" value="" style="whiteSpace=wrap;html=1;aspect=fixed;fontStyle=1" parent="kh9sIOl-MEBEW36ed5PM-173" vertex="1">
          <mxGeometry x="89.03249999999998" y="200.32258064516128" width="29.67741935483871" height="29.67741935483871" as="geometry" />
        </mxCell>
        <mxCell id="kh9sIOl-MEBEW36ed5PM-168" value="" style="whiteSpace=wrap;html=1;aspect=fixed;fontStyle=1" parent="kh9sIOl-MEBEW36ed5PM-173" vertex="1">
          <mxGeometry x="118.70999999999998" y="200.32258064516128" width="29.67741935483871" height="29.67741935483871" as="geometry" />
        </mxCell>
        <mxCell id="kh9sIOl-MEBEW36ed5PM-169" value="" style="whiteSpace=wrap;html=1;aspect=fixed;fontStyle=1" parent="kh9sIOl-MEBEW36ed5PM-173" vertex="1">
          <mxGeometry x="148.3875" y="200.32258064516128" width="29.67741935483871" height="29.67741935483871" as="geometry" />
        </mxCell>
        <mxCell id="kh9sIOl-MEBEW36ed5PM-170" value="" style="whiteSpace=wrap;html=1;aspect=fixed;fontStyle=1" parent="kh9sIOl-MEBEW36ed5PM-173" vertex="1">
          <mxGeometry x="178.06499999999997" y="200.32258064516128" width="29.67741935483871" height="29.67741935483871" as="geometry" />
        </mxCell>
        <mxCell id="kh9sIOl-MEBEW36ed5PM-171" value="" style="whiteSpace=wrap;html=1;aspect=fixed;fontStyle=1" parent="kh9sIOl-MEBEW36ed5PM-173" vertex="1">
          <mxGeometry x="207.74249999999998" y="200.32258064516128" width="29.67741935483871" height="29.67741935483871" as="geometry" />
        </mxCell>
        <mxCell id="kh9sIOl-MEBEW36ed5PM-172" value="……" style="text;html=1;align=center;verticalAlign=middle;whiteSpace=wrap;rounded=0;" parent="kh9sIOl-MEBEW36ed5PM-173" vertex="1">
          <mxGeometry x="81.613125" y="178.06451612903226" width="74.19375" height="22.258064516129032" as="geometry" />
        </mxCell>
        <mxCell id="kh9sIOl-MEBEW36ed5PM-174" value="0" style="whiteSpace=wrap;html=1;aspect=fixed;" parent="1" vertex="1">
          <mxGeometry x="890" y="1400" width="40" height="40" as="geometry" />
        </mxCell>
        <mxCell id="kh9sIOl-MEBEW36ed5PM-175" value="1" style="whiteSpace=wrap;html=1;aspect=fixed;" parent="1" vertex="1">
          <mxGeometry x="930" y="1400" width="40" height="40" as="geometry" />
        </mxCell>
        <mxCell id="kh9sIOl-MEBEW36ed5PM-176" value="0" style="whiteSpace=wrap;html=1;aspect=fixed;" parent="1" vertex="1">
          <mxGeometry x="970" y="1400" width="40" height="40" as="geometry" />
        </mxCell>
        <mxCell id="kh9sIOl-MEBEW36ed5PM-177" value="0" style="whiteSpace=wrap;html=1;aspect=fixed;" parent="1" vertex="1">
          <mxGeometry x="1010" y="1400" width="40" height="40" as="geometry" />
        </mxCell>
        <mxCell id="kh9sIOl-MEBEW36ed5PM-178" value="0" style="whiteSpace=wrap;html=1;aspect=fixed;" parent="1" vertex="1">
          <mxGeometry x="1050" y="1400" width="40" height="40" as="geometry" />
        </mxCell>
        <mxCell id="kh9sIOl-MEBEW36ed5PM-179" value="0" style="whiteSpace=wrap;html=1;aspect=fixed;" parent="1" vertex="1">
          <mxGeometry x="1090" y="1400" width="40" height="40" as="geometry" />
        </mxCell>
        <mxCell id="kh9sIOl-MEBEW36ed5PM-180" value="0" style="whiteSpace=wrap;html=1;aspect=fixed;" parent="1" vertex="1">
          <mxGeometry x="1130" y="1400" width="40" height="40" as="geometry" />
        </mxCell>
        <mxCell id="kh9sIOl-MEBEW36ed5PM-181" value="1" style="whiteSpace=wrap;html=1;aspect=fixed;" parent="1" vertex="1">
          <mxGeometry x="1170" y="1400" width="40" height="40" as="geometry" />
        </mxCell>
        <mxCell id="kh9sIOl-MEBEW36ed5PM-182" value="" style="edgeStyle=none;orthogonalLoop=1;jettySize=auto;html=1;rounded=0;exitX=0;exitY=0;exitDx=0;exitDy=0;" parent="1" source="kh9sIOl-MEBEW36ed5PM-178" target="kh9sIOl-MEBEW36ed5PM-184" edge="1">
          <mxGeometry width="80" relative="1" as="geometry">
            <mxPoint x="1050" y="1380" as="sourcePoint" />
            <mxPoint x="1050" y="1340" as="targetPoint" />
            <Array as="points" />
          </mxGeometry>
        </mxCell>
        <mxCell id="kh9sIOl-MEBEW36ed5PM-183" value="ASCII" style="edgeLabel;html=1;align=center;verticalAlign=middle;resizable=0;points=[];" parent="kh9sIOl-MEBEW36ed5PM-182" vertex="1" connectable="0">
          <mxGeometry x="-0.175" relative="1" as="geometry">
            <mxPoint y="1" as="offset" />
          </mxGeometry>
        </mxCell>
        <mxCell id="kh9sIOl-MEBEW36ed5PM-184" value="A" style="text;html=1;align=center;verticalAlign=middle;resizable=0;points=[];autosize=1;fillColor=#f5f5f5;fontColor=#333333;strokeColor=#666666;" parent="1" vertex="1">
          <mxGeometry x="1035" y="1300" width="30" height="30" as="geometry" />
        </mxCell>
        <mxCell id="e9ybmhdoWSf53ikpGfkQ-45" style="edgeStyle=orthogonalEdgeStyle;rounded=0;orthogonalLoop=1;jettySize=auto;html=1;exitX=1;exitY=0.5;exitDx=0;exitDy=0;entryX=0;entryY=0.5;entryDx=0;entryDy=0;startArrow=classic;startFill=1;dashed=1;" parent="1" source="e9ybmhdoWSf53ikpGfkQ-4" target="e9ybmhdoWSf53ikpGfkQ-44" edge="1">
          <mxGeometry relative="1" as="geometry" />
        </mxCell>
        <mxCell id="e9ybmhdoWSf53ikpGfkQ-46" style="edgeStyle=orthogonalEdgeStyle;rounded=0;orthogonalLoop=1;jettySize=auto;html=1;exitX=0.5;exitY=0.875;exitDx=0;exitDy=0;entryX=0.5;entryY=0;entryDx=0;entryDy=0;exitPerimeter=0;" parent="1" source="e9ybmhdoWSf53ikpGfkQ-4" target="e9ybmhdoWSf53ikpGfkQ-8" edge="1">
          <mxGeometry relative="1" as="geometry" />
        </mxCell>
        <mxCell id="e9ybmhdoWSf53ikpGfkQ-4" value="" style="image;html=1;image=img/lib/clip_art/networking/Router_Icon_128x128.png" parent="1" vertex="1">
          <mxGeometry x="273.44" y="1480" width="80" height="80" as="geometry" />
        </mxCell>
        <mxCell id="e9ybmhdoWSf53ikpGfkQ-33" style="edgeStyle=orthogonalEdgeStyle;rounded=0;orthogonalLoop=1;jettySize=auto;html=1;exitX=0.5;exitY=1;exitDx=0;exitDy=0;" parent="1" source="e9ybmhdoWSf53ikpGfkQ-8" target="e9ybmhdoWSf53ikpGfkQ-30" edge="1">
          <mxGeometry relative="1" as="geometry">
            <Array as="points">
              <mxPoint x="313.82" y="1740" />
              <mxPoint x="266.82" y="1740" />
            </Array>
          </mxGeometry>
        </mxCell>
        <mxCell id="e9ybmhdoWSf53ikpGfkQ-34" style="edgeStyle=orthogonalEdgeStyle;rounded=0;orthogonalLoop=1;jettySize=auto;html=1;exitX=0.5;exitY=1;exitDx=0;exitDy=0;" parent="1" source="e9ybmhdoWSf53ikpGfkQ-8" target="e9ybmhdoWSf53ikpGfkQ-29" edge="1">
          <mxGeometry relative="1" as="geometry">
            <mxPoint x="325.82" y="1690" as="sourcePoint" />
            <Array as="points">
              <mxPoint x="313.82" y="1740" />
              <mxPoint x="399.82" y="1740" />
            </Array>
          </mxGeometry>
        </mxCell>
        <mxCell id="e9ybmhdoWSf53ikpGfkQ-48" style="edgeStyle=orthogonalEdgeStyle;rounded=0;orthogonalLoop=1;jettySize=auto;html=1;exitX=0.5;exitY=1;exitDx=0;exitDy=0;" parent="1" source="e9ybmhdoWSf53ikpGfkQ-8" edge="1">
          <mxGeometry relative="1" as="geometry">
            <mxPoint x="505.82000000000005" y="1810" as="targetPoint" />
          </mxGeometry>
        </mxCell>
        <mxCell id="e9ybmhdoWSf53ikpGfkQ-8" value="" style="image;html=1;image=img/lib/clip_art/networking/Wireless_Router_N_128x128.png" parent="1" vertex="1">
          <mxGeometry x="273.44" y="1590" width="80" height="80" as="geometry" />
        </mxCell>
        <mxCell id="e9ybmhdoWSf53ikpGfkQ-43" style="edgeStyle=orthogonalEdgeStyle;rounded=0;orthogonalLoop=1;jettySize=auto;html=1;exitX=1;exitY=0.5;exitDx=0;exitDy=0;entryX=0;entryY=0.5;entryDx=0;entryDy=0;startArrow=classic;startFill=1;dashed=1;" parent="1" source="e9ybmhdoWSf53ikpGfkQ-18" target="e9ybmhdoWSf53ikpGfkQ-4" edge="1">
          <mxGeometry relative="1" as="geometry" />
        </mxCell>
        <mxCell id="e9ybmhdoWSf53ikpGfkQ-18" value="" style="image;html=1;image=img/lib/clip_art/computers/Server_Rack_128x128.png" parent="1" vertex="1">
          <mxGeometry x="86.82" y="1480" width="80" height="80" as="geometry" />
        </mxCell>
        <mxCell id="e9ybmhdoWSf53ikpGfkQ-36" style="edgeStyle=orthogonalEdgeStyle;rounded=0;orthogonalLoop=1;jettySize=auto;html=1;exitX=0.5;exitY=0;exitDx=0;exitDy=0;" parent="1" source="e9ybmhdoWSf53ikpGfkQ-19" edge="1">
          <mxGeometry relative="1" as="geometry">
            <mxPoint x="135.81999999999977" y="1300" as="targetPoint" />
            <Array as="points">
              <mxPoint x="313.82" y="1330" />
              <mxPoint x="135.82" y="1330" />
            </Array>
          </mxGeometry>
        </mxCell>
        <mxCell id="e9ybmhdoWSf53ikpGfkQ-37" style="edgeStyle=orthogonalEdgeStyle;rounded=0;orthogonalLoop=1;jettySize=auto;html=1;exitX=0.5;exitY=0;exitDx=0;exitDy=0;" parent="1" source="e9ybmhdoWSf53ikpGfkQ-19" target="e9ybmhdoWSf53ikpGfkQ-17" edge="1">
          <mxGeometry relative="1" as="geometry">
            <Array as="points">
              <mxPoint x="313.82" y="1330" />
              <mxPoint x="254.82" y="1330" />
            </Array>
          </mxGeometry>
        </mxCell>
        <mxCell id="e9ybmhdoWSf53ikpGfkQ-38" style="edgeStyle=orthogonalEdgeStyle;rounded=0;orthogonalLoop=1;jettySize=auto;html=1;exitX=0.5;exitY=0;exitDx=0;exitDy=0;" parent="1" source="e9ybmhdoWSf53ikpGfkQ-19" target="e9ybmhdoWSf53ikpGfkQ-16" edge="1">
          <mxGeometry relative="1" as="geometry">
            <Array as="points">
              <mxPoint x="313.82" y="1330" />
              <mxPoint x="387.82" y="1330" />
            </Array>
          </mxGeometry>
        </mxCell>
        <mxCell id="e9ybmhdoWSf53ikpGfkQ-40" style="edgeStyle=orthogonalEdgeStyle;rounded=0;orthogonalLoop=1;jettySize=auto;html=1;exitX=0.5;exitY=1;exitDx=0;exitDy=0;startArrow=classic;startFill=1;" parent="1" source="e9ybmhdoWSf53ikpGfkQ-19" target="e9ybmhdoWSf53ikpGfkQ-4" edge="1">
          <mxGeometry relative="1" as="geometry" />
        </mxCell>
        <mxCell id="e9ybmhdoWSf53ikpGfkQ-19" value="" style="image;html=1;image=img/lib/clip_art/networking/Wireless_Router_N_128x128.png" parent="1" vertex="1">
          <mxGeometry x="273.44" y="1350" width="80" height="80" as="geometry" />
        </mxCell>
        <mxCell id="e9ybmhdoWSf53ikpGfkQ-20" value="" style="group" parent="1" vertex="1" connectable="0">
          <mxGeometry x="90.94999999999999" y="1220" width="420" height="80" as="geometry" />
        </mxCell>
        <mxCell id="e9ybmhdoWSf53ikpGfkQ-14" value="" style="image;points=[];aspect=fixed;html=1;align=center;shadow=0;dashed=0;image=img/lib/allied_telesis/computer_and_terminals/Personal_Computer_with_Server.svg;" parent="e9ybmhdoWSf53ikpGfkQ-20" vertex="1">
          <mxGeometry y="11.200000000000045" width="62.400000000000006" height="62.400000000000006" as="geometry" />
        </mxCell>
        <mxCell id="e9ybmhdoWSf53ikpGfkQ-15" value="" style="sketch=0;aspect=fixed;pointerEvents=1;shadow=0;dashed=0;html=1;strokeColor=none;labelPosition=center;verticalLabelPosition=bottom;verticalAlign=top;align=center;fillColor=#00188D;shape=mxgraph.mscae.enterprise.android_phone" parent="e9ybmhdoWSf53ikpGfkQ-20" vertex="1">
          <mxGeometry x="390" y="17.40000000000009" width="30" height="50" as="geometry" />
        </mxCell>
        <mxCell id="e9ybmhdoWSf53ikpGfkQ-16" value="" style="shape=image;html=1;verticalAlign=top;verticalLabelPosition=bottom;labelBackgroundColor=#ffffff;imageAspect=0;aspect=fixed;image=https://cdn1.iconfinder.com/data/icons/general-9/500/iPad-128.png" parent="e9ybmhdoWSf53ikpGfkQ-20" vertex="1">
          <mxGeometry x="257.62" y="1.2000000000000455" width="78.8" height="78.8" as="geometry" />
        </mxCell>
        <mxCell id="e9ybmhdoWSf53ikpGfkQ-17" value="" style="image;html=1;image=img/lib/clip_art/computers/Laptop_128x128.png" parent="e9ybmhdoWSf53ikpGfkQ-20" vertex="1">
          <mxGeometry x="124" width="80" height="80" as="geometry" />
        </mxCell>
        <mxCell id="e9ybmhdoWSf53ikpGfkQ-26" value="" style="group" parent="1" vertex="1" connectable="0">
          <mxGeometry x="102.82" y="1800" width="420" height="80" as="geometry" />
        </mxCell>
        <mxCell id="e9ybmhdoWSf53ikpGfkQ-27" value="" style="image;points=[];aspect=fixed;html=1;align=center;shadow=0;dashed=0;image=img/lib/allied_telesis/computer_and_terminals/Personal_Computer_with_Server.svg;" parent="e9ybmhdoWSf53ikpGfkQ-26" vertex="1">
          <mxGeometry y="11.200000000000045" width="62.400000000000006" height="62.400000000000006" as="geometry" />
        </mxCell>
        <mxCell id="e9ybmhdoWSf53ikpGfkQ-28" value="" style="sketch=0;aspect=fixed;pointerEvents=1;shadow=0;dashed=0;html=1;strokeColor=none;labelPosition=center;verticalLabelPosition=bottom;verticalAlign=top;align=center;fillColor=#00188D;shape=mxgraph.mscae.enterprise.android_phone" parent="e9ybmhdoWSf53ikpGfkQ-26" vertex="1">
          <mxGeometry x="390" y="17.40000000000009" width="30" height="50" as="geometry" />
        </mxCell>
        <mxCell id="e9ybmhdoWSf53ikpGfkQ-29" value="" style="shape=image;html=1;verticalAlign=top;verticalLabelPosition=bottom;labelBackgroundColor=#ffffff;imageAspect=0;aspect=fixed;image=https://cdn1.iconfinder.com/data/icons/general-9/500/iPad-128.png" parent="e9ybmhdoWSf53ikpGfkQ-26" vertex="1">
          <mxGeometry x="257.62" y="1.2000000000000455" width="78.8" height="78.8" as="geometry" />
        </mxCell>
        <mxCell id="e9ybmhdoWSf53ikpGfkQ-30" value="" style="image;html=1;image=img/lib/clip_art/computers/Laptop_128x128.png" parent="e9ybmhdoWSf53ikpGfkQ-26" vertex="1">
          <mxGeometry x="124" width="80" height="80" as="geometry" />
        </mxCell>
        <mxCell id="e9ybmhdoWSf53ikpGfkQ-39" style="edgeStyle=orthogonalEdgeStyle;rounded=0;orthogonalLoop=1;jettySize=auto;html=1;exitX=0.5;exitY=0;exitDx=0;exitDy=0;entryX=0.5;entryY=1;entryDx=0;entryDy=0;entryPerimeter=0;" parent="1" source="e9ybmhdoWSf53ikpGfkQ-19" target="e9ybmhdoWSf53ikpGfkQ-15" edge="1">
          <mxGeometry relative="1" as="geometry">
            <Array as="points">
              <mxPoint x="313.82" y="1330" />
              <mxPoint x="495.82" y="1330" />
            </Array>
          </mxGeometry>
        </mxCell>
        <mxCell id="e9ybmhdoWSf53ikpGfkQ-44" value="" style="image;html=1;image=img/lib/clip_art/computers/Server_Rack_128x128.png" parent="1" vertex="1">
          <mxGeometry x="465.82" y="1480" width="80" height="80" as="geometry" />
        </mxCell>
        <mxCell id="e9ybmhdoWSf53ikpGfkQ-47" style="edgeStyle=orthogonalEdgeStyle;rounded=0;orthogonalLoop=1;jettySize=auto;html=1;exitX=0.5;exitY=1;exitDx=0;exitDy=0;entryX=0.369;entryY=-0.02;entryDx=0;entryDy=0;entryPerimeter=0;" parent="1" source="e9ybmhdoWSf53ikpGfkQ-8" target="e9ybmhdoWSf53ikpGfkQ-27" edge="1">
          <mxGeometry relative="1" as="geometry">
            <Array as="points">
              <mxPoint x="313.82" y="1740" />
              <mxPoint x="125.82" y="1740" />
            </Array>
          </mxGeometry>
        </mxCell>
        <mxCell id="e9ybmhdoWSf53ikpGfkQ-51" value="计算机网络" style="text;html=1;align=center;verticalAlign=middle;whiteSpace=wrap;rounded=0;fontSize=16;shadow=0;fontStyle=1" parent="1" vertex="1">
          <mxGeometry x="222.005" y="1160" width="181.63" height="20" as="geometry" />
        </mxCell>
        <mxCell id="e9ybmhdoWSf53ikpGfkQ-52" value="服务器" style="text;html=1;align=center;verticalAlign=middle;whiteSpace=wrap;rounded=0;" parent="1" vertex="1">
          <mxGeometry x="96.82" y="1560" width="60" height="30" as="geometry" />
        </mxCell>
        <mxCell id="e9ybmhdoWSf53ikpGfkQ-53" value="服务器" style="text;html=1;align=center;verticalAlign=middle;whiteSpace=wrap;rounded=0;" parent="1" vertex="1">
          <mxGeometry x="475.82" y="1560" width="60" height="30" as="geometry" />
        </mxCell>
        <mxCell id="e9ybmhdoWSf53ikpGfkQ-61" style="edgeStyle=orthogonalEdgeStyle;rounded=0;orthogonalLoop=1;jettySize=auto;html=1;entryX=0.004;entryY=0.413;entryDx=0;entryDy=0;exitX=1;exitY=0.5;exitDx=0;exitDy=0;entryPerimeter=0;" parent="1" source="e9ybmhdoWSf53ikpGfkQ-68" target="e9ybmhdoWSf53ikpGfkQ-59" edge="1">
          <mxGeometry relative="1" as="geometry">
            <mxPoint x="222.56" y="2220" as="sourcePoint" />
            <mxPoint x="288.8504800000001" y="1923.7400000000002" as="targetPoint" />
          </mxGeometry>
        </mxCell>
        <mxCell id="e9ybmhdoWSf53ikpGfkQ-63" value="" style="group" parent="1" vertex="1" connectable="0">
          <mxGeometry x="-40" y="2130" width="176" height="180" as="geometry" />
        </mxCell>
        <mxCell id="e9ybmhdoWSf53ikpGfkQ-56" value="" style="rounded=0;whiteSpace=wrap;html=1;fillColor=none;" parent="e9ybmhdoWSf53ikpGfkQ-63" vertex="1">
          <mxGeometry width="170.9714285714286" height="169.41176470588235" as="geometry" />
        </mxCell>
        <mxCell id="e9ybmhdoWSf53ikpGfkQ-54" value="源代码 .cpp" style="rounded=0;whiteSpace=wrap;html=1;fillColor=none;fontStyle=1" parent="e9ybmhdoWSf53ikpGfkQ-63" vertex="1">
          <mxGeometry x="0.13" width="170.97" height="30" as="geometry" />
        </mxCell>
        <mxCell id="e9ybmhdoWSf53ikpGfkQ-55" value="&lt;div style=&quot;color: rgb(59, 59, 59); font-family: Menlo, Monaco, &amp;quot;Courier New&amp;quot;, monospace; font-weight: normal; font-size: 12px; line-height: 18px; white-space: pre;&quot;&gt;&lt;div&gt;&lt;span style=&quot;color: #af00db;&quot;&gt;#include&lt;/span&gt;&lt;span style=&quot;color: #0000ff;&quot;&gt; &lt;/span&gt;&lt;span style=&quot;color: #a31515;&quot;&gt;&amp;lt;iostream&amp;gt;&lt;/span&gt;&lt;/div&gt;&lt;div&gt;&lt;span style=&quot;color: #af00db;&quot;&gt;using&lt;/span&gt;&lt;span style=&quot;color: #3b3b3b;&quot;&gt; &lt;/span&gt;&lt;span style=&quot;color: #0000ff;&quot;&gt;namespace&lt;/span&gt;&lt;span style=&quot;color: #3b3b3b;&quot;&gt; &lt;/span&gt;&lt;span style=&quot;color: #267f99;&quot;&gt;std&lt;/span&gt;&lt;span style=&quot;color: #3b3b3b;&quot;&gt;;&lt;/span&gt;&lt;/div&gt;&lt;br&gt;&lt;div&gt;&lt;span style=&quot;color: #0000ff;&quot;&gt;int&lt;/span&gt;&lt;span style=&quot;color: #3b3b3b;&quot;&gt; &lt;/span&gt;&lt;span style=&quot;color: #795e26;&quot;&gt;main&lt;/span&gt;&lt;span style=&quot;color: #3b3b3b;&quot;&gt;() {&lt;/span&gt;&lt;/div&gt;&lt;div&gt;&lt;span style=&quot;color: #3b3b3b;&quot;&gt;    &lt;/span&gt;&lt;span style=&quot;color: #001080;&quot;&gt;cout&lt;/span&gt;&lt;span style=&quot;color: #3b3b3b;&quot;&gt; &lt;/span&gt;&lt;span style=&quot;color: #795e26;&quot;&gt;&amp;lt;&amp;lt;&lt;/span&gt;&lt;span style=&quot;color: #3b3b3b;&quot;&gt; &lt;/span&gt;&lt;span style=&quot;color: #098658;&quot;&gt;5&lt;/span&gt;&lt;span style=&quot;color: #3b3b3b;&quot;&gt; &lt;/span&gt;&lt;span style=&quot;color: #000000;&quot;&gt;+&lt;/span&gt;&lt;span style=&quot;color: #3b3b3b;&quot;&gt; &lt;/span&gt;&lt;span style=&quot;color: #098658;&quot;&gt;2&lt;/span&gt;&lt;span style=&quot;color: #3b3b3b;&quot;&gt;;&lt;/span&gt;&lt;/div&gt;&lt;div&gt;&lt;span style=&quot;color: #3b3b3b;&quot;&gt;}&lt;/span&gt;&lt;/div&gt;&lt;/div&gt;" style="text;whiteSpace=wrap;html=1;labelBackgroundColor=none;" parent="e9ybmhdoWSf53ikpGfkQ-63" vertex="1">
          <mxGeometry x="5.0285714285714285" y="42.35294117647059" width="170.9714285714286" height="137.64705882352942" as="geometry" />
        </mxCell>
        <mxCell id="e9ybmhdoWSf53ikpGfkQ-69" value="" style="edgeStyle=orthogonalEdgeStyle;rounded=0;orthogonalLoop=1;jettySize=auto;html=1;entryX=0;entryY=0.5;entryDx=0;entryDy=0;exitX=0.984;exitY=0.346;exitDx=0;exitDy=0;exitPerimeter=0;" parent="1" source="e9ybmhdoWSf53ikpGfkQ-55" target="e9ybmhdoWSf53ikpGfkQ-68" edge="1">
          <mxGeometry relative="1" as="geometry">
            <mxPoint x="93" y="2220" as="sourcePoint" />
            <mxPoint x="394" y="2220" as="targetPoint" />
          </mxGeometry>
        </mxCell>
        <mxCell id="e9ybmhdoWSf53ikpGfkQ-68" value="编译和链接程序" style="rounded=0;whiteSpace=wrap;html=1;fillColor=none;" parent="1" vertex="1">
          <mxGeometry x="184" y="2200" width="120" height="40" as="geometry" />
        </mxCell>
        <mxCell id="e9ybmhdoWSf53ikpGfkQ-71" value="" style="group" parent="1" vertex="1" connectable="0">
          <mxGeometry x="350" y="2130" width="440" height="175" as="geometry" />
        </mxCell>
        <mxCell id="e9ybmhdoWSf53ikpGfkQ-59" value="0000000    175317  177355  000014  000400  000000  000000  000001  000000&#xa;0000020    000004  000000  000550  000000  020000  000000  000000  000000&#xa;0000040    000031  000000  000350  000000  000000  000000  000000  000000&#xa;0000060    000000  000000  000000  000000  000000  000000  000000  000000&#xa;0000100    000110  000000  000000  000000  000610  000000  000000  000000&#xa;0000120    000110  000000  000000  000000  000007  000000  000007  000000&#xa;0000140    000002  000000  000000  000000  057537  062564  072170  000000&#xa;………………………………" style="text;whiteSpace=wrap;align=center;strokeColor=default;" parent="e9ybmhdoWSf53ikpGfkQ-71" vertex="1">
          <mxGeometry y="30" width="440" height="145" as="geometry" />
        </mxCell>
        <mxCell id="e9ybmhdoWSf53ikpGfkQ-70" value="可执行文件 .exe" style="rounded=0;whiteSpace=wrap;html=1;fillColor=none;fontStyle=1" parent="e9ybmhdoWSf53ikpGfkQ-71" vertex="1">
          <mxGeometry width="440" height="30" as="geometry" />
        </mxCell>
        <mxCell id="e9ybmhdoWSf53ikpGfkQ-73" value="编译和链接流程" style="text;html=1;align=center;verticalAlign=middle;whiteSpace=wrap;rounded=0;fontStyle=1" parent="1" vertex="1">
          <mxGeometry x="315" y="2070" width="120" height="30" as="geometry" />
        </mxCell>
        <mxCell id="_lzSxHNgL6J8in0VEXk1-1" value="系统" style="rounded=1;whiteSpace=wrap;html=1;fillColor=none;glass=0;" vertex="1" parent="1">
          <mxGeometry x="94" y="2597" width="132.81" height="43" as="geometry" />
        </mxCell>
        <mxCell id="_lzSxHNgL6J8in0VEXk1-6" value="函数调用栈" style="text;html=1;align=center;verticalAlign=middle;whiteSpace=wrap;rounded=0;fillColor=none;" vertex="1" parent="1">
          <mxGeometry x="121.11" y="2654" width="78.59" height="27" as="geometry" />
        </mxCell>
        <mxCell id="_lzSxHNgL6J8in0VEXk1-7" value="main()" style="rounded=1;whiteSpace=wrap;html=1;fillColor=none;" vertex="1" parent="1">
          <mxGeometry x="94" y="2554" width="132.81" height="43" as="geometry" />
        </mxCell>
        <mxCell id="_lzSxHNgL6J8in0VEXk1-8" value="abs()" style="rounded=1;whiteSpace=wrap;html=1;fillColor=none;" vertex="1" parent="1">
          <mxGeometry x="94" y="2511" width="132.81" height="43" as="geometry" />
        </mxCell>
      </root>
    </mxGraphModel>
  </diagram>
  <diagram id="C5RBs43oDa-KdzZeNtuy" name="Page-1">
    <mxGraphModel dx="1354" dy="1046" grid="0" gridSize="10" guides="1" tooltips="1" connect="1" arrows="1" fold="1" page="0" pageScale="1" pageWidth="827" pageHeight="1169" math="0" shadow="0">
      <root>
        <mxCell id="WIyWlLk6GJQsqaUBKTNV-0" />
        <mxCell id="WIyWlLk6GJQsqaUBKTNV-1" parent="WIyWlLk6GJQsqaUBKTNV-0" />
        <mxCell id="xVwW4lFDMVjpCHsykP15-6" style="edgeStyle=orthogonalEdgeStyle;rounded=0;orthogonalLoop=1;jettySize=auto;html=1;exitX=0.5;exitY=1;exitDx=0;exitDy=0;entryX=0.5;entryY=0;entryDx=0;entryDy=0;" edge="1" parent="WIyWlLk6GJQsqaUBKTNV-1" source="xVwW4lFDMVjpCHsykP15-0" target="xVwW4lFDMVjpCHsykP15-2">
          <mxGeometry relative="1" as="geometry" />
        </mxCell>
        <mxCell id="xVwW4lFDMVjpCHsykP15-0" value="输入a, b" style="shape=parallelogram;perimeter=parallelogramPerimeter;whiteSpace=wrap;html=1;fixedSize=1;fillColor=#f5f5f5;fontColor=#333333;strokeColor=#666666;" vertex="1" parent="WIyWlLk6GJQsqaUBKTNV-1">
          <mxGeometry x="40" y="275" width="140" height="40" as="geometry" />
        </mxCell>
        <mxCell id="xVwW4lFDMVjpCHsykP15-5" style="edgeStyle=orthogonalEdgeStyle;rounded=0;orthogonalLoop=1;jettySize=auto;html=1;exitX=0.5;exitY=1;exitDx=0;exitDy=0;entryX=0.5;entryY=0;entryDx=0;entryDy=0;" edge="1" parent="WIyWlLk6GJQsqaUBKTNV-1" source="xVwW4lFDMVjpCHsykP15-1" target="xVwW4lFDMVjpCHsykP15-0">
          <mxGeometry relative="1" as="geometry" />
        </mxCell>
        <mxCell id="xVwW4lFDMVjpCHsykP15-1" value="开始" style="rounded=1;whiteSpace=wrap;html=1;fontSize=12;glass=0;strokeWidth=1;shadow=0;fillColor=#fff2cc;strokeColor=#d6b656;" vertex="1" parent="WIyWlLk6GJQsqaUBKTNV-1">
          <mxGeometry x="50" y="200" width="120" height="40" as="geometry" />
        </mxCell>
        <mxCell id="xVwW4lFDMVjpCHsykP15-7" style="edgeStyle=orthogonalEdgeStyle;rounded=0;orthogonalLoop=1;jettySize=auto;html=1;exitX=0.5;exitY=1;exitDx=0;exitDy=0;entryX=0.5;entryY=0;entryDx=0;entryDy=0;" edge="1" parent="WIyWlLk6GJQsqaUBKTNV-1" source="xVwW4lFDMVjpCHsykP15-2" target="xVwW4lFDMVjpCHsykP15-3">
          <mxGeometry relative="1" as="geometry" />
        </mxCell>
        <mxCell id="xVwW4lFDMVjpCHsykP15-2" value="算数运算&lt;div&gt;+ - * /&lt;/div&gt;" style="rounded=0;whiteSpace=wrap;html=1;fillColor=#f8cecc;strokeColor=#b85450;" vertex="1" parent="WIyWlLk6GJQsqaUBKTNV-1">
          <mxGeometry x="50" y="350" width="120" height="40" as="geometry" />
        </mxCell>
        <mxCell id="xVwW4lFDMVjpCHsykP15-8" style="edgeStyle=orthogonalEdgeStyle;rounded=0;orthogonalLoop=1;jettySize=auto;html=1;exitX=0.5;exitY=1;exitDx=0;exitDy=0;entryX=0.5;entryY=0;entryDx=0;entryDy=0;" edge="1" parent="WIyWlLk6GJQsqaUBKTNV-1" source="xVwW4lFDMVjpCHsykP15-3" target="xVwW4lFDMVjpCHsykP15-4">
          <mxGeometry relative="1" as="geometry" />
        </mxCell>
        <mxCell id="xVwW4lFDMVjpCHsykP15-3" value="输出计算结果" style="shape=parallelogram;perimeter=parallelogramPerimeter;whiteSpace=wrap;html=1;fixedSize=1;fillColor=#f5f5f5;fontColor=#333333;strokeColor=#666666;" vertex="1" parent="WIyWlLk6GJQsqaUBKTNV-1">
          <mxGeometry x="40" y="425" width="140" height="40" as="geometry" />
        </mxCell>
        <mxCell id="xVwW4lFDMVjpCHsykP15-4" value="结束" style="rounded=1;whiteSpace=wrap;html=1;fontSize=12;glass=0;strokeWidth=1;shadow=0;fillColor=#ffe6cc;strokeColor=#d79b00;" vertex="1" parent="WIyWlLk6GJQsqaUBKTNV-1">
          <mxGeometry x="50" y="500" width="120" height="40" as="geometry" />
        </mxCell>
        <mxCell id="xVwW4lFDMVjpCHsykP15-48" value="" style="group" vertex="1" connectable="0" parent="WIyWlLk6GJQsqaUBKTNV-1">
          <mxGeometry x="290" y="110" width="430" height="550" as="geometry" />
        </mxCell>
        <mxCell id="xVwW4lFDMVjpCHsykP15-27" style="edgeStyle=orthogonalEdgeStyle;rounded=0;orthogonalLoop=1;jettySize=auto;html=1;exitX=0.5;exitY=1;exitDx=0;exitDy=0;entryX=0.5;entryY=0;entryDx=0;entryDy=0;" edge="1" parent="xVwW4lFDMVjpCHsykP15-48" source="xVwW4lFDMVjpCHsykP15-18" target="xVwW4lFDMVjpCHsykP15-22">
          <mxGeometry relative="1" as="geometry" />
        </mxCell>
        <mxCell id="xVwW4lFDMVjpCHsykP15-28" style="edgeStyle=orthogonalEdgeStyle;rounded=0;orthogonalLoop=1;jettySize=auto;html=1;exitX=1;exitY=0.5;exitDx=0;exitDy=0;entryX=0.5;entryY=0;entryDx=0;entryDy=0;" edge="1" parent="xVwW4lFDMVjpCHsykP15-48" source="xVwW4lFDMVjpCHsykP15-18" target="xVwW4lFDMVjpCHsykP15-23">
          <mxGeometry relative="1" as="geometry" />
        </mxCell>
        <mxCell id="xVwW4lFDMVjpCHsykP15-18" value="op == &#39;+&#39;" style="rhombus;whiteSpace=wrap;html=1;" vertex="1" parent="xVwW4lFDMVjpCHsykP15-48">
          <mxGeometry x="30" y="147.6851851851852" width="80" height="50.92592592592593" as="geometry" />
        </mxCell>
        <mxCell id="xVwW4lFDMVjpCHsykP15-26" style="edgeStyle=orthogonalEdgeStyle;rounded=0;orthogonalLoop=1;jettySize=auto;html=1;exitX=0.5;exitY=1;exitDx=0;exitDy=0;entryX=0.5;entryY=0;entryDx=0;entryDy=0;" edge="1" parent="xVwW4lFDMVjpCHsykP15-48" source="xVwW4lFDMVjpCHsykP15-19" target="xVwW4lFDMVjpCHsykP15-18">
          <mxGeometry relative="1" as="geometry" />
        </mxCell>
        <mxCell id="xVwW4lFDMVjpCHsykP15-19" value="输入a, b, op" style="shape=parallelogram;perimeter=parallelogramPerimeter;whiteSpace=wrap;html=1;fixedSize=1;fillColor=#f5f5f5;fontColor=#333333;strokeColor=#666666;" vertex="1" parent="xVwW4lFDMVjpCHsykP15-48">
          <mxGeometry y="76.3888888888889" width="140" height="40.74074074074075" as="geometry" />
        </mxCell>
        <mxCell id="xVwW4lFDMVjpCHsykP15-20" style="edgeStyle=orthogonalEdgeStyle;rounded=0;orthogonalLoop=1;jettySize=auto;html=1;exitX=0.5;exitY=1;exitDx=0;exitDy=0;entryX=0.5;entryY=0;entryDx=0;entryDy=0;" edge="1" parent="xVwW4lFDMVjpCHsykP15-48" source="xVwW4lFDMVjpCHsykP15-21" target="xVwW4lFDMVjpCHsykP15-19">
          <mxGeometry relative="1" as="geometry" />
        </mxCell>
        <mxCell id="xVwW4lFDMVjpCHsykP15-21" value="开始" style="rounded=1;whiteSpace=wrap;html=1;fontSize=12;glass=0;strokeWidth=1;shadow=0;fillColor=#fff2cc;strokeColor=#d6b656;" vertex="1" parent="xVwW4lFDMVjpCHsykP15-48">
          <mxGeometry x="10" width="120" height="40.74074074074075" as="geometry" />
        </mxCell>
        <mxCell id="xVwW4lFDMVjpCHsykP15-39" style="edgeStyle=orthogonalEdgeStyle;rounded=0;orthogonalLoop=1;jettySize=auto;html=1;exitX=0.5;exitY=1;exitDx=0;exitDy=0;entryX=0.5;entryY=0;entryDx=0;entryDy=0;" edge="1" parent="xVwW4lFDMVjpCHsykP15-48" source="xVwW4lFDMVjpCHsykP15-22" target="xVwW4lFDMVjpCHsykP15-45">
          <mxGeometry relative="1" as="geometry">
            <mxPoint x="70" y="437.962962962963" as="targetPoint" />
          </mxGeometry>
        </mxCell>
        <mxCell id="xVwW4lFDMVjpCHsykP15-22" value="计算 a + b" style="rounded=0;whiteSpace=wrap;html=1;fillColor=#f8cecc;strokeColor=#b85450;" vertex="1" parent="xVwW4lFDMVjpCHsykP15-48">
          <mxGeometry x="10" y="244.44444444444446" width="120" height="40.74074074074075" as="geometry" />
        </mxCell>
        <mxCell id="xVwW4lFDMVjpCHsykP15-29" style="edgeStyle=orthogonalEdgeStyle;rounded=0;orthogonalLoop=1;jettySize=auto;html=1;exitX=1;exitY=0.5;exitDx=0;exitDy=0;entryX=0.5;entryY=0;entryDx=0;entryDy=0;" edge="1" parent="xVwW4lFDMVjpCHsykP15-48" source="xVwW4lFDMVjpCHsykP15-23" target="xVwW4lFDMVjpCHsykP15-24">
          <mxGeometry relative="1" as="geometry" />
        </mxCell>
        <mxCell id="xVwW4lFDMVjpCHsykP15-34" style="edgeStyle=orthogonalEdgeStyle;rounded=0;orthogonalLoop=1;jettySize=auto;html=1;exitX=0.5;exitY=1;exitDx=0;exitDy=0;entryX=0.5;entryY=0;entryDx=0;entryDy=0;" edge="1" parent="xVwW4lFDMVjpCHsykP15-48" source="xVwW4lFDMVjpCHsykP15-23" target="xVwW4lFDMVjpCHsykP15-32">
          <mxGeometry relative="1" as="geometry" />
        </mxCell>
        <mxCell id="xVwW4lFDMVjpCHsykP15-23" value="op == &#39;-&#39;" style="rhombus;whiteSpace=wrap;html=1;" vertex="1" parent="xVwW4lFDMVjpCHsykP15-48">
          <mxGeometry x="130" y="193.51851851851853" width="80" height="50.92592592592593" as="geometry" />
        </mxCell>
        <mxCell id="xVwW4lFDMVjpCHsykP15-30" style="edgeStyle=orthogonalEdgeStyle;rounded=0;orthogonalLoop=1;jettySize=auto;html=1;exitX=1;exitY=0.5;exitDx=0;exitDy=0;entryX=0.5;entryY=0;entryDx=0;entryDy=0;" edge="1" parent="xVwW4lFDMVjpCHsykP15-48" source="xVwW4lFDMVjpCHsykP15-24" target="xVwW4lFDMVjpCHsykP15-25">
          <mxGeometry relative="1" as="geometry" />
        </mxCell>
        <mxCell id="xVwW4lFDMVjpCHsykP15-36" style="edgeStyle=orthogonalEdgeStyle;rounded=0;orthogonalLoop=1;jettySize=auto;html=1;exitX=0.5;exitY=1;exitDx=0;exitDy=0;entryX=0.5;entryY=0;entryDx=0;entryDy=0;" edge="1" parent="xVwW4lFDMVjpCHsykP15-48" source="xVwW4lFDMVjpCHsykP15-24" target="xVwW4lFDMVjpCHsykP15-31">
          <mxGeometry relative="1" as="geometry" />
        </mxCell>
        <mxCell id="xVwW4lFDMVjpCHsykP15-24" value="op == &#39;*&#39;" style="rhombus;whiteSpace=wrap;html=1;" vertex="1" parent="xVwW4lFDMVjpCHsykP15-48">
          <mxGeometry x="230" y="246.4814814814815" width="80" height="50.92592592592593" as="geometry" />
        </mxCell>
        <mxCell id="xVwW4lFDMVjpCHsykP15-37" style="edgeStyle=orthogonalEdgeStyle;rounded=0;orthogonalLoop=1;jettySize=auto;html=1;exitX=0.5;exitY=1;exitDx=0;exitDy=0;entryX=0.5;entryY=0;entryDx=0;entryDy=0;" edge="1" parent="xVwW4lFDMVjpCHsykP15-48" source="xVwW4lFDMVjpCHsykP15-25" target="xVwW4lFDMVjpCHsykP15-33">
          <mxGeometry relative="1" as="geometry" />
        </mxCell>
        <mxCell id="xVwW4lFDMVjpCHsykP15-25" value="op == &#39;/&#39;" style="rhombus;whiteSpace=wrap;html=1;" vertex="1" parent="xVwW4lFDMVjpCHsykP15-48">
          <mxGeometry x="330" y="295.3703703703704" width="80" height="50.92592592592593" as="geometry" />
        </mxCell>
        <mxCell id="xVwW4lFDMVjpCHsykP15-42" style="edgeStyle=orthogonalEdgeStyle;rounded=0;orthogonalLoop=1;jettySize=auto;html=1;exitX=0.5;exitY=1;exitDx=0;exitDy=0;entryX=0.5;entryY=0;entryDx=0;entryDy=0;" edge="1" parent="xVwW4lFDMVjpCHsykP15-48" source="xVwW4lFDMVjpCHsykP15-31">
          <mxGeometry relative="1" as="geometry">
            <mxPoint x="70" y="437.962962962963" as="targetPoint" />
            <Array as="points">
              <mxPoint x="270" y="417.5925925925926" />
              <mxPoint x="70" y="417.5925925925926" />
            </Array>
          </mxGeometry>
        </mxCell>
        <mxCell id="xVwW4lFDMVjpCHsykP15-31" value="计算 a - b" style="rounded=0;whiteSpace=wrap;html=1;fillColor=#f8cecc;strokeColor=#b85450;" vertex="1" parent="xVwW4lFDMVjpCHsykP15-48">
          <mxGeometry x="210" y="346.2962962962963" width="120" height="40.74074074074075" as="geometry" />
        </mxCell>
        <mxCell id="xVwW4lFDMVjpCHsykP15-41" style="edgeStyle=orthogonalEdgeStyle;rounded=0;orthogonalLoop=1;jettySize=auto;html=1;exitX=0.5;exitY=1;exitDx=0;exitDy=0;entryX=0.5;entryY=0;entryDx=0;entryDy=0;" edge="1" parent="xVwW4lFDMVjpCHsykP15-48" source="xVwW4lFDMVjpCHsykP15-32" target="xVwW4lFDMVjpCHsykP15-45">
          <mxGeometry relative="1" as="geometry">
            <mxPoint x="70" y="437.962962962963" as="targetPoint" />
          </mxGeometry>
        </mxCell>
        <mxCell id="xVwW4lFDMVjpCHsykP15-32" value="计算 a - b" style="rounded=0;whiteSpace=wrap;html=1;fillColor=#f8cecc;strokeColor=#b85450;" vertex="1" parent="xVwW4lFDMVjpCHsykP15-48">
          <mxGeometry x="110" y="295.3703703703704" width="120" height="40.74074074074075" as="geometry" />
        </mxCell>
        <mxCell id="xVwW4lFDMVjpCHsykP15-43" style="edgeStyle=orthogonalEdgeStyle;rounded=0;orthogonalLoop=1;jettySize=auto;html=1;exitX=0;exitY=0.5;exitDx=0;exitDy=0;entryX=0.5;entryY=0;entryDx=0;entryDy=0;" edge="1" parent="xVwW4lFDMVjpCHsykP15-48" source="xVwW4lFDMVjpCHsykP15-33" target="xVwW4lFDMVjpCHsykP15-45">
          <mxGeometry relative="1" as="geometry">
            <mxPoint x="70" y="437.962962962963" as="targetPoint" />
          </mxGeometry>
        </mxCell>
        <mxCell id="xVwW4lFDMVjpCHsykP15-33" value="计算 a * b" style="rounded=0;whiteSpace=wrap;html=1;fillColor=#f8cecc;strokeColor=#b85450;" vertex="1" parent="xVwW4lFDMVjpCHsykP15-48">
          <mxGeometry x="310" y="397.22222222222223" width="120" height="40.74074074074075" as="geometry" />
        </mxCell>
        <mxCell id="xVwW4lFDMVjpCHsykP15-47" style="edgeStyle=orthogonalEdgeStyle;rounded=0;orthogonalLoop=1;jettySize=auto;html=1;exitX=0.5;exitY=1;exitDx=0;exitDy=0;" edge="1" parent="xVwW4lFDMVjpCHsykP15-48" source="xVwW4lFDMVjpCHsykP15-45" target="xVwW4lFDMVjpCHsykP15-46">
          <mxGeometry relative="1" as="geometry" />
        </mxCell>
        <mxCell id="xVwW4lFDMVjpCHsykP15-45" value="输出计算结果" style="shape=parallelogram;perimeter=parallelogramPerimeter;whiteSpace=wrap;html=1;fixedSize=1;fillColor=#f5f5f5;fontColor=#333333;strokeColor=#666666;" vertex="1" parent="xVwW4lFDMVjpCHsykP15-48">
          <mxGeometry y="437.962962962963" width="140" height="40.74074074074075" as="geometry" />
        </mxCell>
        <mxCell id="xVwW4lFDMVjpCHsykP15-46" value="结束" style="rounded=1;whiteSpace=wrap;html=1;fontSize=12;glass=0;strokeWidth=1;shadow=0;fillColor=#ffe6cc;strokeColor=#d79b00;" vertex="1" parent="xVwW4lFDMVjpCHsykP15-48">
          <mxGeometry x="10" y="509.2592592592593" width="120" height="40.74074074074075" as="geometry" />
        </mxCell>
        <mxCell id="xVwW4lFDMVjpCHsykP15-49" value="" style="group" vertex="1" connectable="0" parent="WIyWlLk6GJQsqaUBKTNV-1">
          <mxGeometry x="797" y="125" width="430" height="550" as="geometry" />
        </mxCell>
        <mxCell id="xVwW4lFDMVjpCHsykP15-50" style="edgeStyle=orthogonalEdgeStyle;rounded=0;orthogonalLoop=1;jettySize=auto;html=1;exitX=0.5;exitY=1;exitDx=0;exitDy=0;entryX=0.5;entryY=0;entryDx=0;entryDy=0;" edge="1" parent="xVwW4lFDMVjpCHsykP15-49" source="xVwW4lFDMVjpCHsykP15-52" target="xVwW4lFDMVjpCHsykP15-58">
          <mxGeometry relative="1" as="geometry" />
        </mxCell>
        <mxCell id="xVwW4lFDMVjpCHsykP15-51" style="edgeStyle=orthogonalEdgeStyle;rounded=0;orthogonalLoop=1;jettySize=auto;html=1;exitX=1;exitY=0.5;exitDx=0;exitDy=0;entryX=0.5;entryY=0;entryDx=0;entryDy=0;" edge="1" parent="xVwW4lFDMVjpCHsykP15-49" source="xVwW4lFDMVjpCHsykP15-52" target="xVwW4lFDMVjpCHsykP15-61">
          <mxGeometry relative="1" as="geometry" />
        </mxCell>
        <mxCell id="xVwW4lFDMVjpCHsykP15-52" value="op == &#39;+&#39;" style="rhombus;whiteSpace=wrap;html=1;" vertex="1" parent="xVwW4lFDMVjpCHsykP15-49">
          <mxGeometry x="30" y="147.6851851851852" width="80" height="50.92592592592593" as="geometry" />
        </mxCell>
        <mxCell id="xVwW4lFDMVjpCHsykP15-53" style="edgeStyle=orthogonalEdgeStyle;rounded=0;orthogonalLoop=1;jettySize=auto;html=1;exitX=0.5;exitY=1;exitDx=0;exitDy=0;entryX=0.5;entryY=0;entryDx=0;entryDy=0;" edge="1" parent="xVwW4lFDMVjpCHsykP15-49" source="xVwW4lFDMVjpCHsykP15-54" target="xVwW4lFDMVjpCHsykP15-52">
          <mxGeometry relative="1" as="geometry" />
        </mxCell>
        <mxCell id="xVwW4lFDMVjpCHsykP15-54" value="输入a, b, op" style="shape=parallelogram;perimeter=parallelogramPerimeter;whiteSpace=wrap;html=1;fixedSize=1;fillColor=#f5f5f5;fontColor=#333333;strokeColor=#666666;" vertex="1" parent="xVwW4lFDMVjpCHsykP15-49">
          <mxGeometry y="76.3888888888889" width="140" height="40.74074074074075" as="geometry" />
        </mxCell>
        <mxCell id="xVwW4lFDMVjpCHsykP15-55" style="edgeStyle=orthogonalEdgeStyle;rounded=0;orthogonalLoop=1;jettySize=auto;html=1;exitX=0.5;exitY=1;exitDx=0;exitDy=0;entryX=0.5;entryY=0;entryDx=0;entryDy=0;" edge="1" parent="xVwW4lFDMVjpCHsykP15-49" source="xVwW4lFDMVjpCHsykP15-56" target="xVwW4lFDMVjpCHsykP15-54">
          <mxGeometry relative="1" as="geometry" />
        </mxCell>
        <mxCell id="xVwW4lFDMVjpCHsykP15-56" value="开始" style="rounded=1;whiteSpace=wrap;html=1;fontSize=12;glass=0;strokeWidth=1;shadow=0;fillColor=#fff2cc;strokeColor=#d6b656;" vertex="1" parent="xVwW4lFDMVjpCHsykP15-49">
          <mxGeometry x="10" width="120" height="40.74074074074075" as="geometry" />
        </mxCell>
        <mxCell id="xVwW4lFDMVjpCHsykP15-57" style="edgeStyle=orthogonalEdgeStyle;rounded=0;orthogonalLoop=1;jettySize=auto;html=1;exitX=0.5;exitY=1;exitDx=0;exitDy=0;entryX=0.5;entryY=0;entryDx=0;entryDy=0;" edge="1" parent="xVwW4lFDMVjpCHsykP15-49" source="xVwW4lFDMVjpCHsykP15-58" target="xVwW4lFDMVjpCHsykP15-74">
          <mxGeometry relative="1" as="geometry">
            <mxPoint x="70" y="437.962962962963" as="targetPoint" />
          </mxGeometry>
        </mxCell>
        <mxCell id="xVwW4lFDMVjpCHsykP15-58" value="计算 a + b" style="rounded=0;whiteSpace=wrap;html=1;fillColor=#f8cecc;strokeColor=#b85450;" vertex="1" parent="xVwW4lFDMVjpCHsykP15-49">
          <mxGeometry x="10" y="244.44444444444446" width="120" height="40.74074074074075" as="geometry" />
        </mxCell>
        <mxCell id="xVwW4lFDMVjpCHsykP15-59" style="edgeStyle=orthogonalEdgeStyle;rounded=0;orthogonalLoop=1;jettySize=auto;html=1;exitX=1;exitY=0.5;exitDx=0;exitDy=0;entryX=0.5;entryY=0;entryDx=0;entryDy=0;" edge="1" parent="xVwW4lFDMVjpCHsykP15-49" source="xVwW4lFDMVjpCHsykP15-61" target="xVwW4lFDMVjpCHsykP15-64">
          <mxGeometry relative="1" as="geometry" />
        </mxCell>
        <mxCell id="xVwW4lFDMVjpCHsykP15-60" style="edgeStyle=orthogonalEdgeStyle;rounded=0;orthogonalLoop=1;jettySize=auto;html=1;exitX=0.5;exitY=1;exitDx=0;exitDy=0;entryX=0.5;entryY=0;entryDx=0;entryDy=0;" edge="1" parent="xVwW4lFDMVjpCHsykP15-49" source="xVwW4lFDMVjpCHsykP15-61" target="xVwW4lFDMVjpCHsykP15-70">
          <mxGeometry relative="1" as="geometry" />
        </mxCell>
        <mxCell id="xVwW4lFDMVjpCHsykP15-61" value="op == &#39;-&#39;" style="rhombus;whiteSpace=wrap;html=1;" vertex="1" parent="xVwW4lFDMVjpCHsykP15-49">
          <mxGeometry x="130" y="193.51851851851853" width="80" height="50.92592592592593" as="geometry" />
        </mxCell>
        <mxCell id="xVwW4lFDMVjpCHsykP15-62" style="edgeStyle=orthogonalEdgeStyle;rounded=0;orthogonalLoop=1;jettySize=auto;html=1;exitX=1;exitY=0.5;exitDx=0;exitDy=0;entryX=0.5;entryY=0;entryDx=0;entryDy=0;" edge="1" parent="xVwW4lFDMVjpCHsykP15-49" source="xVwW4lFDMVjpCHsykP15-64" target="xVwW4lFDMVjpCHsykP15-66">
          <mxGeometry relative="1" as="geometry" />
        </mxCell>
        <mxCell id="xVwW4lFDMVjpCHsykP15-63" style="edgeStyle=orthogonalEdgeStyle;rounded=0;orthogonalLoop=1;jettySize=auto;html=1;exitX=0.5;exitY=1;exitDx=0;exitDy=0;entryX=0.5;entryY=0;entryDx=0;entryDy=0;" edge="1" parent="xVwW4lFDMVjpCHsykP15-49" source="xVwW4lFDMVjpCHsykP15-64" target="xVwW4lFDMVjpCHsykP15-68">
          <mxGeometry relative="1" as="geometry" />
        </mxCell>
        <mxCell id="xVwW4lFDMVjpCHsykP15-64" value="op == &#39;*&#39;" style="rhombus;whiteSpace=wrap;html=1;" vertex="1" parent="xVwW4lFDMVjpCHsykP15-49">
          <mxGeometry x="230" y="246.4814814814815" width="80" height="50.92592592592593" as="geometry" />
        </mxCell>
        <mxCell id="xVwW4lFDMVjpCHsykP15-65" style="edgeStyle=orthogonalEdgeStyle;rounded=0;orthogonalLoop=1;jettySize=auto;html=1;exitX=0.5;exitY=1;exitDx=0;exitDy=0;entryX=0.5;entryY=0;entryDx=0;entryDy=0;" edge="1" parent="xVwW4lFDMVjpCHsykP15-49" source="xVwW4lFDMVjpCHsykP15-66" target="xVwW4lFDMVjpCHsykP15-72">
          <mxGeometry relative="1" as="geometry" />
        </mxCell>
        <mxCell id="xVwW4lFDMVjpCHsykP15-66" value="op == &#39;/&#39;" style="rhombus;whiteSpace=wrap;html=1;" vertex="1" parent="xVwW4lFDMVjpCHsykP15-49">
          <mxGeometry x="330" y="295.3703703703704" width="80" height="50.92592592592593" as="geometry" />
        </mxCell>
        <mxCell id="xVwW4lFDMVjpCHsykP15-67" style="edgeStyle=orthogonalEdgeStyle;rounded=0;orthogonalLoop=1;jettySize=auto;html=1;exitX=0.5;exitY=1;exitDx=0;exitDy=0;entryX=0.5;entryY=0;entryDx=0;entryDy=0;" edge="1" parent="xVwW4lFDMVjpCHsykP15-49" source="xVwW4lFDMVjpCHsykP15-68">
          <mxGeometry relative="1" as="geometry">
            <mxPoint x="70" y="437.962962962963" as="targetPoint" />
            <Array as="points">
              <mxPoint x="270" y="417.5925925925926" />
              <mxPoint x="70" y="417.5925925925926" />
            </Array>
          </mxGeometry>
        </mxCell>
        <mxCell id="xVwW4lFDMVjpCHsykP15-68" value="计算 a - b" style="rounded=0;whiteSpace=wrap;html=1;fillColor=#f8cecc;strokeColor=#b85450;" vertex="1" parent="xVwW4lFDMVjpCHsykP15-49">
          <mxGeometry x="210" y="346.2962962962963" width="120" height="40.74074074074075" as="geometry" />
        </mxCell>
        <mxCell id="xVwW4lFDMVjpCHsykP15-69" style="edgeStyle=orthogonalEdgeStyle;rounded=0;orthogonalLoop=1;jettySize=auto;html=1;exitX=0.5;exitY=1;exitDx=0;exitDy=0;entryX=0.5;entryY=0;entryDx=0;entryDy=0;" edge="1" parent="xVwW4lFDMVjpCHsykP15-49" source="xVwW4lFDMVjpCHsykP15-70" target="xVwW4lFDMVjpCHsykP15-74">
          <mxGeometry relative="1" as="geometry">
            <mxPoint x="70" y="437.962962962963" as="targetPoint" />
          </mxGeometry>
        </mxCell>
        <mxCell id="xVwW4lFDMVjpCHsykP15-70" value="计算 a - b" style="rounded=0;whiteSpace=wrap;html=1;fillColor=#f8cecc;strokeColor=#b85450;" vertex="1" parent="xVwW4lFDMVjpCHsykP15-49">
          <mxGeometry x="110" y="295.3703703703704" width="120" height="40.74074074074075" as="geometry" />
        </mxCell>
        <mxCell id="xVwW4lFDMVjpCHsykP15-71" style="edgeStyle=orthogonalEdgeStyle;rounded=0;orthogonalLoop=1;jettySize=auto;html=1;exitX=0;exitY=0.5;exitDx=0;exitDy=0;entryX=0.5;entryY=0;entryDx=0;entryDy=0;" edge="1" parent="xVwW4lFDMVjpCHsykP15-49" source="xVwW4lFDMVjpCHsykP15-72" target="xVwW4lFDMVjpCHsykP15-74">
          <mxGeometry relative="1" as="geometry">
            <mxPoint x="70" y="437.962962962963" as="targetPoint" />
          </mxGeometry>
        </mxCell>
        <mxCell id="xVwW4lFDMVjpCHsykP15-72" value="计算 a * b" style="rounded=0;whiteSpace=wrap;html=1;fillColor=#f8cecc;strokeColor=#b85450;" vertex="1" parent="xVwW4lFDMVjpCHsykP15-49">
          <mxGeometry x="310" y="397.22222222222223" width="120" height="40.74074074074075" as="geometry" />
        </mxCell>
        <mxCell id="xVwW4lFDMVjpCHsykP15-73" style="edgeStyle=orthogonalEdgeStyle;rounded=0;orthogonalLoop=1;jettySize=auto;html=1;exitX=0.5;exitY=1;exitDx=0;exitDy=0;" edge="1" parent="xVwW4lFDMVjpCHsykP15-49" source="xVwW4lFDMVjpCHsykP15-74" target="xVwW4lFDMVjpCHsykP15-75">
          <mxGeometry relative="1" as="geometry" />
        </mxCell>
        <mxCell id="xVwW4lFDMVjpCHsykP15-76" style="edgeStyle=orthogonalEdgeStyle;rounded=0;orthogonalLoop=1;jettySize=auto;html=1;exitX=0.5;exitY=1;exitDx=0;exitDy=0;entryX=0.5;entryY=0;entryDx=0;entryDy=0;" edge="1" parent="xVwW4lFDMVjpCHsykP15-49" source="xVwW4lFDMVjpCHsykP15-74" target="xVwW4lFDMVjpCHsykP15-54">
          <mxGeometry relative="1" as="geometry">
            <mxPoint x="70.09090909090901" y="72.27272727272725" as="targetPoint" />
            <Array as="points">
              <mxPoint x="70" y="492" />
              <mxPoint x="-34" y="492" />
              <mxPoint x="-34" y="60" />
              <mxPoint x="70" y="60" />
            </Array>
          </mxGeometry>
        </mxCell>
        <mxCell id="xVwW4lFDMVjpCHsykP15-74" value="输出计算结果" style="shape=parallelogram;perimeter=parallelogramPerimeter;whiteSpace=wrap;html=1;fixedSize=1;fillColor=#f5f5f5;fontColor=#333333;strokeColor=#666666;" vertex="1" parent="xVwW4lFDMVjpCHsykP15-49">
          <mxGeometry y="437.962962962963" width="140" height="40.74074074074075" as="geometry" />
        </mxCell>
        <mxCell id="xVwW4lFDMVjpCHsykP15-75" value="结束" style="rounded=1;whiteSpace=wrap;html=1;fontSize=12;glass=0;strokeWidth=1;shadow=0;fillColor=#ffe6cc;strokeColor=#d79b00;" vertex="1" parent="xVwW4lFDMVjpCHsykP15-49">
          <mxGeometry x="10" y="509.2592592592593" width="120" height="40.74074074074075" as="geometry" />
        </mxCell>
      </root>
    </mxGraphModel>
  </diagram>
</mxfile>
